<?xml version="1.0" encoding="UTF-8" standalone="no"?>
<!-- Created with Inkscape (http://www.inkscape.org/) -->

<svg
   width="349.2229mm"
   height="509.78839mm"
   viewBox="0 0 349.2229 509.78839"
   version="1.1"
   id="svg5"
   xml:space="preserve"
   xmlns="http://www.w3.org/2000/svg"
   xmlns:svg="http://www.w3.org/2000/svg"><defs
     id="defs2" /><g
     id="layer1"
     transform="translate(2827.1929,10126.583)"><path
       style="fill:#000000;stroke-width:1"
       d="m -2704.1964,-9617.1388 c -1.4227,-0.4435 -5.4346,-0.5306 -8.7631,-0.1903 -2.4424,0.2491 -2.7806,0.2045 -3.6615,-0.4891 -0.7159,-0.563 -0.9711,-1.0815 -0.9711,-1.9786 0,-2.9153 -4.498,-3.0672 -12.6808,-0.4263 -6.6012,2.1305 -7.0457,2.2125 -8.3439,1.5411 -1.3953,-0.7209 -1.6475,-1.6222 -0.9245,-3.3041 1.0471,-2.4353 1.1959,-3.2423 0.719,-3.8945 -0.5489,-0.7503 -1.1514,-0.6278 -5.2038,1.0501 -5.2149,2.1599 -9.4466,2.8485 -17.5038,2.8464 -5.5866,0 -7.8011,-0.1529 -11.1802,-0.7705 -7.3079,-1.3347 -12.7102,-3.6474 -14.7414,-6.3116 -1.7751,-2.3259 -1.4997,-5.5025 0.6065,-7.0021 2.4515,-1.7448 5.2007,-1.5473 6.2326,0.4485 0.5002,0.9681 0.4992,1.1514 -0.01,1.9301 -0.8576,1.3082 -3.3193,1.688 -3.6929,0.568 -0.1256,-0.3797 0,-0.3979 0.5731,-0.091 0.8962,0.48 2.3644,0 2.7027,-0.881 0.326,-0.8485 -0.6187,-2.1629 -1.761,-2.4495 -2.4525,-0.6156 -5.1642,1.607 -5.1642,4.2337 0,2.3027 1.1371,3.7062 4.2975,5.304 3.6251,1.8329 7.1732,2.3442 12.2919,1.7721 13.814,-1.5442 24.3045,-8.2385 33.8949,-21.6272 11.5295,-16.0963 20.8221,-39.9684 30.4145,-78.1232 3.9805,-15.8361 10.3397,-43.2442 11.7867,-50.8003 0.7027,-3.6747 1.6768,-8.0582 2.1649,-9.7392 1.0126,-3.4975 0.9984,-3.4033 0.5418,-3.4033 -0.4304,0 -3.5198,5.2351 -4.6367,7.8588 -1.6222,3.8104 -2.9072,8.0937 -3.9644,13.2165 -0.6602,3.1957 -1.4713,6.0017 -2.1173,7.3231 -1.3488,2.7593 -4.0423,5.9055 -7.9328,9.2673 -1.7032,1.4734 -3.1846,2.9639 -3.2919,3.3143 -0.1064,0.3493 -0.4486,2.3725 -0.7595,4.4949 -1.3002,8.8735 -4.8503,15.9404 -9.0942,18.1054 -2.6823,1.368 -4.8412,0.8566 -2.2408,-0.5306 0.9285,-0.4952 1.609,-1.2617 2.2236,-2.5012 0.8192,-1.6536 0.8992,-2.2874 1.0855,-8.5727 0.2633,-8.8947 0.4152,-9.2086 7.0923,-14.7586 8.2223,-6.8331 8.76,-7.6989 9.5367,-15.3521 0.8465,-8.3489 1.3083,-10.2263 4.5294,-18.3909 0.9903,-2.5102 1.6961,-4.6671 1.5685,-4.7947 -0.1266,-0.1265 -0.5914,0.1013 -1.0329,0.5003 -1.769,1.611 -3.4955,1.8733 -3.9825,0.6045 -0.2927,-0.7625 0.3078,-1.7964 4.1942,-7.2259 6.3905,-8.9281 9.0263,-15.6255 11.2702,-28.6415 1.4521,-8.4289 2.8282,-24.5333 2.2308,-26.116 -0.2906,-0.7716 -0.3747,-0.6663 -0.8931,1.1139 -0.315,1.0804 -1.5443,6.0634 -2.733,11.0738 -2.6277,11.0778 -3.5219,14.0843 -5.5552,18.6683 -1.9837,4.4757 -3.4651,6.9454 -7.1176,11.8738 -4.2387,5.7181 -4.7713,6.5738 -7.9448,12.7598 -4.9314,9.6146 -6.4118,11.8849 -20.8546,31.9769 -8.0573,11.2106 -12.4965,18.7089 -14.4164,24.3541 -1.9351,5.6888 -2.0495,11.9933 -0.3878,21.287 1.848,10.3366 0.8252,17.4309 -3.4084,23.6432 -1.3822,2.0293 -5.6372,6.5424 -6.1668,6.5424 -0.2025,0 0.1175,-0.5225 0.7109,-1.1614 3.0135,-3.2403 5.1713,-6.91 6.0401,-10.2698 0.4841,-1.8733 0.564,-3.3588 0.4111,-7.6806 -0.2349,-6.6235 -1.1574,-11.09 -4.1516,-20.088 -1.1919,-3.5826 -2.167,-6.7915 -2.167,-7.1308 0,-0.4475 -0.2957,-0.2774 -1.0754,0.6187 -1.6667,1.9169 -2.7816,3.934 -3.7517,6.7855 -1.047,3.0793 -1.0764,3.8924 -0.3088,8.5139 0.7746,4.6681 0.3139,6.4027 -2.5781,9.7058 -1.1118,1.2698 -2.5842,3.0794 -3.2717,4.0211 -0.6866,0.9417 -1.3225,1.6384 -1.4136,1.5482 -0.2896,-0.2906 1.1695,-3.1988 2.6976,-5.3718 1.5776,-2.246 2.1912,-3.8985 2.2014,-5.9258 0,-1.0824 -0.3058,-1.5422 -2.3199,-3.4195 -2.1498,-2.005 -2.326,-2.2824 -2.326,-3.6697 0,-1.2597 0.235,-1.7548 1.4653,-3.0894 0.806,-0.8749 2.0707,-1.8572 2.8099,-2.1832 0.9559,-0.4223 1.5574,-1.0329 2.084,-2.1153 0.4071,-0.8375 1.765,-2.7928 3.0165,-4.3441 2.0546,-2.5437 2.249,-2.9234 1.9837,-3.8773 -0.162,-0.5812 -0.3098,-2.3694 -0.3281,-3.9734 -0.061,-5.1471 1.2901,-7.7565 7.7393,-14.944 4.4109,-4.9162 6.7673,-8.3286 8.3115,-12.0419 1.4703,-3.5339 2.3442,-8.358 2.1022,-11.6044 -0.2967,-3.9957 -0.7828,-4.1 -0.8284,-0.1762 -0.03,2.649 -0.2521,4.1082 -0.9417,6.2255 -1.611,4.9435 -3.5684,7.552 -11.7289,15.6316 -4.0677,4.0281 -8.0786,8.2071 -8.913,9.2875 -2.0059,2.5984 -4.2063,7.1926 -4.498,9.3919 -0.1772,1.3377 -0.3139,1.6232 -0.564,1.1777 -0.3999,-0.7159 0.397,-4.8342 1.5301,-7.9024 1.5958,-4.3228 4.8736,-9.2035 9.4951,-14.141 5.464,-5.8376 7.389,-8.6567 8.4897,-12.4347 0.881,-3.0226 0.6329,-6.8118 -0.4455,-6.8118 -0.1499,0 -0.4699,1.1503 -0.7109,2.5558 -0.6734,3.9289 -2.2338,6.8452 -5.2281,9.7676 -2.4849,2.4272 -4.9485,4.1172 -5.3779,3.6879 -0.1154,-0.1155 0.5904,-1.2668 1.5685,-2.5599 2.0374,-2.6915 3.7001,-6.031 4.3066,-8.6476 0.4486,-1.9412 0.6299,-5.3881 0.2998,-5.7182 -0.1104,-0.1103 -1.1919,0 -2.4019,0.2532 -2.6277,0.5427 -3.3588,0.2349 -3.5279,-1.4855 -0.3332,-3.3841 3.939,-9.5731 14.5237,-21.0449 5.4569,-5.9146 6.0625,-7.6583 6.8351,-19.6759 0.2207,-3.4378 0.7918,-10.3498 1.2698,-15.3601 1.2941,-13.5871 1.2931,-13.575 0.9245,-13.575 -0.5124,0 -1.7549,2.1842 -2.5396,4.4646 -1.124,3.2686 -1.7073,6.7054 -2.331,13.7541 -1.121,12.6535 -1.8318,14.3506 -9.6633,23.054 -14.6898,16.3251 -21.853,27.3473 -28.5442,43.9256 -5.9876,14.8336 -8.0178,28.7508 -6.424,44.0381 1.9351,18.559 8.3692,34.7555 22.2793,56.086 1.446,2.2176 2.5406,4.1203 2.4333,4.2276 -0.2481,0.2481 -2.6065,-2.731 -6.5941,-8.3266 -12.4266,-17.4401 -18.7676,-31.5314 -21.5897,-47.9791 -0.9002,-5.2413 -1.2333,-16.0194 -0.6977,-22.5051 0.3858,-4.6722 0.3706,-4.9223 -0.4911,-8.035 -1.1645,-4.2064 -1.1381,-4.7238 0.3038,-6.0493 0.6926,-0.6369 1.5179,-1.9665 1.9644,-3.1644 0.876,-2.3452 1.041,-3.8813 0.3433,-3.1846 -1.5128,1.5128 -1.8166,-1.2556 -0.6339,-5.7708 1.2668,-4.8352 3.1563,-9.4486 7.8507,-19.1625 2.8809,-5.9612 5.9957,-13.1709 8.4107,-19.4693 5.8123,-15.1516 10.5655,-26.9231 13.8757,-34.3677 1.6424,-3.692 3.2768,-7.6381 3.6322,-8.7682 0.6055,-1.9259 0.6086,-2.1325 0.061,-3.2919 -0.9134,-1.9179 -3.6646,-3.1928 -6.9252,-3.211 -2.7766,-0.02 -3.7922,0.4547 -5.2747,2.4485 -0.6956,0.9346 -0.7301,1.3822 -0.6237,8.0552 0.1286,8.0867 -0.2917,12.7791 -1.5716,17.5626 -1.8166,6.7895 -4.6883,10.7994 -18.6855,26.0907 -4.9952,5.4579 -6.4523,7.4923 -8.7388,12.2019 -1.0683,2.1993 -2.7097,5.1248 -3.6494,6.4999 -1.9969,2.9223 -5.544,7.3231 -5.9035,7.3231 -0.1377,0 0.6299,-1.3143 1.7042,-2.9203 2.5801,-3.855 3.7385,-6.2053 5.3354,-10.8288 1.4653,-4.2418 1.9655,-4.9769 7.4923,-11.0262 11.6186,-12.7193 14.4204,-16.2553 16.3707,-20.6652 1.5503,-3.5056 1.5452,-4.2195 -0.051,-6.5951 -2.3999,-3.5725 -3.4287,-7.2826 -2.5082,-9.0496 0.7695,-1.4784 1.7832,-1.3113 3.4367,0.567 1.3681,1.5544 1.4754,1.6111 1.4754,0.7797 0,-1.5806 -1.0643,-7.1186 -2.1801,-11.3492 -0.5965,-2.2591 -1.6334,-6.1981 -2.3037,-8.7519 -1.8369,-6.9941 -2.3999,-11.6166 -2.251,-18.4891 l 0.1266,-5.8549 -1.7863,2.9679 c -0.9822,1.6324 -3.7152,5.3901 -6.0726,8.351 -7.3018,9.1671 -8.2162,11.1639 -8.2162,17.9372 0,2.3077 -0.1114,4.1972 -0.2461,4.1972 -0.4678,0 -0.8263,-3.4094 -0.8263,-7.8588 0,-5.872 0.3312,-6.6801 5.2474,-12.8094 9.4212,-11.7462 11.9649,-17.4319 12.3375,-27.5772 0.2086,-5.6918 -0.2005,-8.7084 -1.9098,-14.0681 -1.7184,-5.3901 -1.9614,-5.6604 -5.4184,-6.0412 -0.8425,-0.091 -1.9564,-0.4465 -2.4748,-0.7867 l -0.9438,-0.6177 3.1897,-1.4956 c 2.967,-1.3903 4.4393,-2.4536 4.0018,-2.891 -0.1012,-0.1013 -0.566,-0.02 -1.0338,0.1752 -3.5441,1.4986 -7.6148,2.8828 -8.4785,2.8828 -0.5701,0 -1.2384,-0.244 -1.4865,-0.5427 -0.7929,-0.9559 0.481,-1.7711 5.2857,-3.3862 5.3081,-1.7842 6.7835,-2.731 3.6505,-2.3431 -1.0805,0.1347 -3.6261,0.6359 -5.6574,1.1148 -4.3451,1.0238 -5.2625,1.0724 -5.5623,0.2897 -0.5356,-1.3954 2.0172,-2.6976 6.9607,-3.5512 1.852,-0.32 3.9694,-0.5003 4.7055,-0.402 1.5645,0.2096 1.7761,-0.3099 0.3575,-0.878 -1.2151,-0.487 -7.3566,0.1013 -9.6896,0.9286 -2.1174,0.7503 -3.1563,0.7007 -3.6241,-0.1742 -0.6359,-1.1878 -0.1013,-2.0404 3.5127,-5.5511 1.8865,-1.8348 3.3234,-3.4428 3.1938,-3.5734 -0.396,-0.395 -3.1746,1.4389 -5.945,3.9228 -1.442,1.2921 -2.7634,2.2621 -2.9376,2.1538 -0.7858,-0.4851 -0.1539,-1.8146 1.8571,-3.9087 l 2.1741,-2.2631 -0.6967,-1.0096 c -0.3828,-0.5549 -1.2171,-1.8531 -1.8541,-2.8849 -0.6369,-1.0318 -1.2029,-1.8753 -1.2586,-1.8753 -0.051,0 -0.561,0.24 -1.123,0.5336 -1.4582,0.7595 -3.055,0.6643 -4.42,-0.2663 -1.7812,-1.2121 -2.0688,-1.8612 -1.2334,-2.7836 0.3848,-0.4243 1.122,-0.9914 1.6394,-1.2587 0.6349,-0.3281 1.0167,-0.886 1.1716,-1.7133 0.317,-1.6891 0.7868,-1.9675 3.2535,-1.9301 2.7675,0.041 3.3882,0.556 3.3882,2.809 0,0.9397 0.161,1.8085 0.3574,1.93 0.558,0.3453 0.4182,1.607 -0.1792,1.607 -0.5853,0 -0.7362,0.9063 -0.2056,1.2334 0.1813,0.1124 0.4375,0.6946 0.5681,1.2931 0.1367,0.6207 0.5711,1.2333 1.0106,1.4237 0.4233,0.1843 1.0369,0.5265 1.3629,0.7604 0.4851,0.3474 0.8142,0.2562 1.8055,-0.4992 1.3012,-0.9923 1.284,-0.8951 1.4541,-8.3884 0.071,-3.0641 -4.7055,-9.4344 -8.1373,-10.8571 -1.0814,-0.4476 -1.9664,-0.9458 -1.9664,-1.1057 0,-0.5438 -2.1589,-0.3089 -2.3766,0.2572 -0.3402,0.888 0.8961,1.9776 1.9462,1.7143 0.8577,-0.2147 0.8871,-0.1701 0.6602,0.9883 -1.2576,6.4138 -11.0748,5.3769 -10.4875,-1.1088 l 0.1458,-1.607 -2.6591,2.6793 c -3.0165,3.0389 -2.9568,3.1553 -1.3558,-2.6742 0.4921,-1.7913 1.1553,-3.4095 1.4996,-3.6616 0.5711,-0.4172 0.562,-0.4516 -0.1255,-0.4516 -0.7494,0 -1.7093,-1.6091 -2.8019,-4.6924 -0.4273,-1.2081 -0.4132,-1.286 0.2116,-1.122 0.3686,0.1013 1.4278,-0.081 2.3543,-0.399 2.5356,-0.8637 4.2185,-0.7584 5.0661,0.319 0.8678,1.1027 1.0045,1.1088 1.2677,0.061 0.4375,-1.7417 4.4332,-4.5081 6.5253,-4.5183 1.0237,0 1.9158,1.924 1.9158,4.1396 0,1.369 -0.1914,1.9117 -0.9539,2.7087 -0.8728,0.9103 -0.9073,1.049 -0.4,1.6262 0.3038,0.3473 0.8263,1.1696 1.1585,1.8267 0.3331,0.6562 1.9624,2.645 3.621,4.417 1.6587,1.7731 3.6869,4.2448 4.5081,5.4944 0.8213,1.2485 1.526,2.2338 1.5655,2.1902 0.041,-0.04 0.5904,-2.571 1.2222,-5.6158 0.9316,-4.4828 1.1524,-6.3875 1.1605,-10.0025 0.02,-8.4411 -1.4237,-12.7892 -9.2562,-27.8729 -3.4297,-6.6042 -4.3785,-10.809 -4.4008,-19.492 -0.01,-4.1 -0.071,-4.431 -1.1128,-6.526 -0.6309,-1.26 -2.2207,-3.388 -3.7143,-4.968 l -2.6115,-2.763 -0.7463,0.942 c -0.4101,0.518 -1.1482,1.044 -1.6414,1.168 -0.9954,0.249 -3.4023,-0.604 -3.4023,-1.208 0,-0.236 -0.3068,-0.189 -0.803,0.124 -0.4425,0.278 -1.1655,0.615 -1.608,0.747 -0.6542,0.195 -0.804,0.102 -0.804,-0.51 0,-1.082 0.886,-3.042 1.7791,-3.935 0.5286,-0.529 0.6602,-0.902 0.4202,-1.192 -0.725,-0.878 -0.8749,-3.067 -0.2734,-3.985 0.7362,-1.124 1.2243,-0.943 4.0079,1.482 2.332,2.031 2.6399,2.193 2.6399,1.387 0,-0.283 0.1681,-0.618 0.3726,-0.745 0.5691,-0.351 1.3397,0.466 1.6131,1.71 0.1934,0.881 0.091,1.241 -0.4871,1.709 -0.7189,0.582 -0.6916,0.629 1.6536,2.883 4.0018,3.846 5.0448,4.741 5.2645,4.521 0.4486,-0.449 2.6773,-11.316 2.8778,-14.029 0.238,-3.227 -0.8445,-12.247 -2.0232,-16.853 -0.7462,-2.918 -1.4206,-4.27 -3.5015,-7.015 -1.5615,-2.059 -4.6084,-4.109 -4.9152,-3.308 -0.2835,0.737 -2.1548,1.309 -3.1006,0.948 -1.9817,-0.759 -2.971,-3.465 -1.8753,-5.136 0.4698,-0.718 0.5144,-1.077 0.2045,-1.655 -0.2734,-0.512 -0.2825,-0.948 -0.03,-1.422 0.4861,-0.908 0.963,-1.049 2.8748,-0.849 1.5047,0.157 1.6971,0.07 3.0196,-1.293 0.7767,-0.803 1.5331,-1.461 1.6819,-1.461 0.1489,0 0.4516,0.603 0.6714,1.339 0.3169,1.059 0.2926,1.657 -0.1195,2.852 -0.4415,1.281 -0.4466,1.572 -0.03,1.919 0.6856,0.569 0.6157,1.035 -0.3007,2.01 -1.0248,1.091 -0.7342,1.555 2.3553,3.762 l 2.3806,1.701 0.3666,-0.963 c 3.2423,-8.529 3.8134,-16.231 2.1842,-29.487 l -0.6015,-4.899 -1.607,-1.024 c -3.0662,-1.951 -6.6913,-6.507 -7.6553,-9.62 -0.242,-0.783 -0.2167,-0.78 2.008,0.231 2.6236,1.193 6.4563,2.982 6.7308,3.141 0.1043,0.06 0.3908,-1.577 0.6359,-3.641 0.245,-2.063 0.885,-5.5 1.4217,-7.636 l 0.9761,-3.886 -0.8587,-1.893 c -1.4936,-3.291 -1.3933,-5.861 0.2613,-6.747 0.5275,-0.281 0.8506,-0.08 1.769,1.117 0.8982,1.168 1.1685,1.344 1.3498,0.873 0.4911,-1.28 1.7366,-0.597 3.2504,1.783 0.3889,0.612 0.4598,0.571 0.8841,-0.5 0.5265,-1.331 1.046,-1.341 1.3973,-0.03 0.5296,1.98 -1.4682,5.217 -3.8468,6.235 -1.1422,0.489 -1.1433,0.492 -0.6258,1.731 0.7382,1.766 0.6754,1.922 -0.8202,2.046 -1.2314,0.102 -1.4187,0.27 -2.3148,2.076 -1.8227,3.67 -1.9878,12.003 -0.4213,21.201 l 0.6319,3.709 2.5973,-1.746 c 1.4298,-0.96 2.6966,-1.903 2.815,-2.095 0.4952,-0.801 0.8891,-0.249 0.8891,1.243 0,2.266 -1.206,5.197 -2.9548,7.184 -1.3731,1.56 -1.5523,1.997 -2.1021,5.127 -0.3301,1.881 -1.1838,5.873 -1.8966,8.87 -1.5199,6.391 -1.9392,10.367 -1.5443,14.66 0.2866,3.122 2.0242,12.935 2.2906,12.935 0.081,0 1.6363,-1.527 3.4641,-3.395 2.5446,-2.598 3.5451,-3.393 4.2701,-3.393 1.5726,0 1.8986,-1.147 0.9478,-3.336 -2.328,-5.364 -2.1487,-6.307 1.1989,-6.312 1.2212,0 2.7027,-0.04 3.292,-0.09 0.9245,-0.07 1.0865,0.05 1.1827,0.879 0.061,0.53 -0.061,1.294 -0.2805,1.696 -0.2157,0.403 -0.2653,0.732 -0.1114,0.731 0.155,0 0.5762,-0.719 0.9367,-1.596 0.3605,-0.877 1.2445,-2.245 1.9644,-3.039 l 1.3093,-1.444 1.7863,1.589 1.7852,1.589 -0.9711,1.86 c -0.5336,1.024 -0.8891,1.994 -0.7888,2.156 0.1012,0.162 0.8587,0.599 1.686,0.971 1.5179,0.682 2.4879,1.589 3.5704,3.335 l 0.5924,0.955 -1.7933,0.385 c -0.9873,0.212 -2.4293,0.385 -3.2059,0.385 -1.4035,0 -1.4116,0.01 -1.4116,1.399 0,0.949 -0.484,2.332 -1.5007,4.288 -0.8253,1.587 -1.5888,2.886 -1.6961,2.886 -0.1083,0 -0.6632,-0.844 -1.2354,-1.876 -0.5711,-1.031 -1.3518,-2.326 -1.7346,-2.878 -0.6764,-0.972 -0.7189,-0.983 -1.4054,-0.361 -0.6815,0.617 -0.7271,0.615 -1.2111,-0.05 -0.2775,-0.378 -0.5043,-0.874 -0.5043,-1.1 0,-0.227 -0.2977,-0.683 -0.6622,-1.013 -0.6319,-0.571 -0.7737,-0.483 -2.9477,1.825 -5.1137,5.426 -7.7657,12.027 -9.799,24.384 -0.6572,3.99 -0.8212,12.287 -0.2784,14.052 l 0.3108,1.012 1.1767,-1.815 c 0.648,-1 1.4004,-1.817 1.6728,-1.817 0.2724,0 0.9437,0.764 1.4926,1.697 1.3052,2.222 1.3913,5.7914 0.2015,8.3998 -0.965,2.1174 -0.9478,2.1751 3.4762,11.3371 2.9811,6.1739 4.4646,10.441 5.8752,16.8953 l 0.2187,0.9994 2.9355,-2.7846 c 1.6151,-1.5321 3.7659,-3.6302 4.7805,-4.661 1.0146,-1.0319 2.0688,-1.8764 2.3432,-1.8764 0.2744,0 0.7949,-0.2157 1.1574,-0.481 0.6339,-0.4637 0.6298,-0.5093 -0.1104,-1.2505 -0.9792,-0.9782 -0.9964,-2.6733 -0.051,-4.5335 0.5488,-1.0764 0.6673,-1.7811 0.4931,-2.9476 -0.319,-2.1336 0.6066,-4.3876 2.4485,-5.9653 0.806,-0.6896 1.5776,-1.2536 1.7153,-1.2536 0.1367,0 0.4506,0.4851 0.6967,1.0795 0.6491,1.5675 0.9812,1.6059 1.5746,0.1853 0.2906,-0.6957 0.7007,-1.2648 0.9113,-1.2648 0.643,0 5.059,4.6357 4.8058,5.0458 -0.165,0.2663 -0.01,0.2633 0.4972,-0.01 1.0005,-0.5357 2.5498,-0.4931 4.2783,0.1164 0.7949,0.2805 2.1993,0.6228 3.1228,0.7615 l 1.6779,0.2511 -0.159,1.6536 c -0.3017,3.1431 -1.8014,4.9294 -4.4352,5.2828 l -1.4125,0.1893 1.4439,2.8383 c 1.36,2.6733 1.4076,2.8667 0.8051,3.3173 -0.8932,0.6673 -4.332,1.0511 -5.2109,0.5803 -0.3909,-0.2086 -0.8222,-0.7322 -0.9589,-1.1635 -0.2279,-0.72 -0.3068,-0.6683 -0.958,0.6247 -1.0936,2.1711 -2.0333,2.9893 -4.1314,3.5988 -2.6013,0.7565 -4.58,0.2238 -6.3196,-1.7011 -0.6866,-0.7605 -1.4754,-1.3822 -1.7528,-1.3822 -0.8628,0 -3.9887,2.7137 -5.7243,4.9688 -0.9113,1.1847 -2.2115,3.3244 -2.8899,4.7542 -1.3215,2.7856 -3.2728,9.8202 -4.2864,15.4462 -0.6146,3.4155 -0.6136,3.4611 0.1013,3.9593 0.3959,0.2774 0.8252,0.9235 0.9538,1.4348 0.5317,2.1204 2.4293,5.4488 4.0312,7.071 1.0359,1.0501 2.7249,2.2156 4.2813,2.9548 2.9639,1.4065 3.5502,2.1072 5.0741,6.0574 1.204,3.1229 2.8596,5.3445 4.9395,6.6295 1.0886,0.6734 1.7346,0.7979 3.7122,0.7179 3.0793,-0.1255 4.9122,0.3848 6.8189,1.8987 3.0672,2.4363 7.6785,5.4964 10.8217,7.1813 2.2935,1.2304 4.1354,2.6024 6.43,4.7897 4.1344,3.941 5.7323,5.1693 8.1849,6.2923 3.6656,1.6778 3.4519,0.8465 -0.5286,-2.0536 -2.0617,-1.5027 -4.3461,-3.0844 -5.0772,-3.5158 -1.8014,-1.0632 -1.6728,-1.4672 0.3676,-1.1533 0.9336,0.1438 3.3851,0.2602 5.4478,0.2592 4.0878,0 4.6802,-0.1995 8.7995,-2.9355 1.4956,-0.9924 2.4849,-1.3326 4.9283,-1.6931 3.6373,-0.5377 5.4549,-1.5786 6.9951,-4.0069 1.2313,-1.9421 1.606,-3.9977 1.1189,-6.1464 -0.4891,-2.162 -0.1529,-2.8353 3.2069,-6.424 6.1435,-6.5637 10.0977,-14.2655 12.3122,-23.9815 1.1402,-5.0012 1.1119,-6.2264 -0.1893,-8.1879 l -1.0481,-1.5806 2.7462,-1.3377 c 2.6287,-1.2799 5.2817,-3.3588 6.0149,-4.7116 0.323,-0.5964 0.7128,-0.6096 6.3419,-0.2167 11.1508,0.7777 21.2788,-0.8435 29.327,-4.6944 1.5715,-0.7514 5.9126,-3.4824 9.645,-6.0686 6.8331,-4.7318 13.1294,-8.2101 14.864,-8.2101 1.0794,0 1.9969,0.6521 5.6058,3.9866 1.4338,1.3255 3.5593,3.1006 4.7227,3.9451 1.1625,0.8435 2.1194,1.6384 2.1245,1.7649 0,0.1266 -0.5924,0.091 -1.3286,-0.081 -1.6961,-0.3939 -4.019,-0.4172 -4.019,-0.041 0,0.158 1.1655,0.6613 2.5903,1.12 3.4145,1.0976 8.4957,3.3426 11.1629,4.9324 4.4929,2.6783 4.9658,3.2383 8.1697,9.6845 1.6262,3.2697 4.9637,9.884 7.4183,14.6969 5.2736,10.3427 7.6512,15.99 11.2024,26.6132 2.5194,7.5388 5.3536,18.5083 5.1045,19.763 -0.061,0.3301 -0.8384,-1.5392 -1.7173,-4.1527 -1.8217,-5.4124 -2.2521,-5.464 -0.8952,-0.1084 0.5053,1.9928 1.7123,8.2416 2.6814,13.8869 5.6878,33.1262 11.4151,51.4199 19.3883,61.9246 2.7735,3.6555 3.8388,5.5015 3.8388,6.6538 0,0.7777 -0.1945,1.0106 -2.087,2.4961 l -0.8374,0.6562 0.7908,2.6054 c 0.9357,3.0793 0.6572,3.7871 -1.0197,2.5933 -1.3883,-0.9883 -2.1923,-0.9721 -2.253,0.051 -0.1955,3.2788 0.8749,8.5443 2.5447,12.5178 0.5842,1.3913 1.0065,2.5841 0.9396,2.652 -0.2086,0.2076 -2.9527,-4.2155 -4.3278,-6.9738 -1.3184,-2.6449 -2.5325,-6.2143 -5.1856,-15.2508 -1.7933,-6.108 -3.8468,-11.0232 -5.9004,-14.1197 -1.7133,-2.5842 -3.3264,-4.4535 -3.6028,-4.176 -0.1013,0.1013 0.7756,2.087 1.9432,4.418 3.6949,7.3707 5.063,12.1249 5.7576,20.0141 0.4071,4.6195 1.2475,7.0355 3.7689,10.8277 2.6358,3.9644 5.5511,6.342 15.3632,12.532 4.7562,3.0003 7.3302,5.9278 9.0041,10.2414 0.7868,2.0273 0.9417,3.0156 0.968,6.1658 0.03,3.3831 -0.071,3.9613 -0.9609,5.8954 l -0.9924,2.1446 2.6186,2.6774 c 3.1502,3.2221 4.2853,5.389 4.4899,8.5706 0.1468,2.2764 0.1904,2.3634 2.3745,4.7228 3.7953,4.099 6.1749,9.6268 5.782,13.4312 -0.1114,1.0743 -0.5924,2.6935 -1.0703,3.5998 -0.478,0.9052 -1.3863,2.6105 -2.0181,3.7891 -1.0248,1.9138 -1.1301,2.3796 -0.9813,4.337 0.1864,2.4616 1.3812,5.3759 3.2951,8.0401 0.6845,0.9538 1.0622,1.7335 0.8374,1.7335 -0.7493,0 -4.2884,-3.3061 -5.5116,-5.1491 -0.6714,-1.0105 -1.4784,-2.9112 -1.8146,-4.2731 -0.5873,-2.3786 -0.5802,-2.6156 0.2218,-7.8993 0.4556,-3.0054 0.7483,-6.2286 0.6521,-7.1905 -0.1074,-1.0704 -0.9569,-3.4479 -2.2004,-6.1546 -2.1933,-4.7755 -2.1893,-4.7552 -1.8176,-8.4593 0.2379,-2.3614 0.1853,-2.6449 -0.884,-4.7633 -1.0835,-2.1457 -3.7051,-5.4073 -4.3471,-5.4073 -0.1661,0 -0.5843,0.9245 -0.9296,2.0536 -0.7908,2.5892 -0.7757,7.8061 0.041,12.7709 0.7453,4.5456 1.1463,12.3497 0.6784,13.1871 -0.2794,0.4972 -0.4688,0.1276 -0.9315,-1.8156 -0.3595,-1.5108 -1.9442,-5.1622 -4.1588,-9.5853 -1.9675,-3.9299 -3.8327,-8.0289 -4.1446,-9.1093 -0.3119,-1.0805 -0.6936,-4.1345 -0.8475,-6.7875 -0.3008,-5.139 -0.639,-6.3591 -2.5234,-9.0982 -2.2278,-3.2383 -7.9135,-8.7631 -9.0193,-8.7631 -0.24,0 -0.3068,0.7959 -0.1853,2.2328 0.1478,1.7569 0.5367,2.8798 1.8288,5.2696 l 1.6414,3.0358 v 4.0595 c 0,2.2328 0.2734,6.0594 0.5995,8.5038 0.5579,4.1881 0.5569,4.4798 -0.02,5.0499 -0.5782,0.5701 -0.6744,0.5377 -1.6515,-0.5468 -1.3772,-1.5301 -2.0587,-4.0403 -2.4688,-9.0912 -0.5063,-6.2336 -1.4743,-7.7464 -5.4984,-8.5899 -3.1684,-0.6653 -3.2201,0.323 -0.061,1.1827 1.7407,0.4739 2.8981,1.4926 3.373,2.968 0.1965,0.6096 0.5225,4.1628 0.7261,7.8952 0.2025,3.7335 0.5387,8.3743 0.7473,10.3144 0.7827,7.2745 3.0378,13.6316 6.6153,18.644 2.9629,4.1517 0.8101,3.1168 -3.372,-1.6211 -6.8523,-7.7637 -8.922,-12.8662 -9.238,-22.7775 -0.1832,-5.7526 -0.5144,-7.0336 -0.971,-3.7598 -0.4618,3.3082 -1.0126,5.8093 -1.281,5.8093 -0.5012,0 -0.6987,-2.2905 -0.722,-8.3955 -0.03,-6.7713 -0.2511,-9.3433 -0.7706,-8.8238 -0.1863,0.1863 -0.4242,3.052 -0.5295,6.3672 -0.3747,11.7766 1.613,19.3812 6.9859,26.7297 0.9974,1.365 4.1091,4.9546 6.913,7.9763 8.0776,8.7063 10.7215,12.6717 12.4338,18.6551 0.6339,2.2136 0.8202,4.177 1.0673,11.2845 0.4799,13.7521 1.608,16.4963 10.1877,24.7591 4.0981,3.9471 5.5876,5.0336 6.903,5.0357 1.2465,0 3.4458,1.3619 4.6721,2.8879 1.2465,1.5513 8.5929,13.7512 8.5929,14.2696 0,0.1914 -0.071,0.3483 -0.166,0.3483 -0.2167,0 -7.4042,-5.1055 -9.479,-6.7328 -2.5112,-1.9715 -5.7182,-5.1379 -6.2781,-6.1991 -0.2795,-0.5306 -0.5083,-1.4966 -0.5083,-2.1467 0,-0.7899 -0.234,-1.3286 -0.7048,-1.6222 -0.3878,-0.242 -2.2561,-1.8429 -4.1507,-3.5583 l -3.4459,-3.1178 -0.7949,0.9964 c -0.4364,0.5488 -1.5573,2.2581 -2.4889,3.8003 l -1.6951,2.8039 2.5588,3.1553 c 1.4096,1.7366 3.2201,4.5141 4.0292,6.1789 1.2708,2.6145 1.4905,3.4236 1.6242,5.9632 0.161,3.0763 -0.1661,6.909 -0.5894,6.909 -0.1367,0 -0.5326,-0.803 -0.8809,-1.7832 -0.3484,-0.9812 -1.3468,-2.7897 -2.2196,-4.019 -0.8719,-1.2293 -2.2683,-3.1999 -3.1027,-4.3785 -3.9228,-5.541 -3.7516,-9.6866 0.6684,-16.2624 l 2.5264,-3.7598 -1.0511,-1.2415 c -2.3209,-2.7431 -5.1734,-7.4416 -5.9591,-9.8151 -0.6998,-2.1123 -0.8739,-3.6373 -1.121,-9.8233 -0.3858,-9.6602 -1.206,-13.5628 -4.018,-19.1118 -2.0181,-3.9806 -4.4808,-7.1844 -9.9124,-12.8905 -6.3966,-6.7216 -8.1301,-9.0091 -10.532,-13.901 -2.8961,-5.8994 -3.1938,-7.3322 -3.2049,-15.4118 l -0.01,-6.8381 -1.3255,0.6764 c -1.7417,0.8881 -3.6555,0.8749 -4.5608,-0.03 -0.8516,-0.8516 -0.6703,-1.4956 0.9245,-3.292 1.6009,-1.8024 2.2834,-3.2292 2.5264,-5.2787 0.1833,-1.5483 0.041,-2.0768 -1.3589,-4.8787 l -1.5644,-3.1431 0.071,-3.8175 0.071,-3.8165 -1.5239,-0.3838 c -1.926,-0.4851 -3.3791,-1.6202 -4.011,-3.132 -0.8374,-2.0039 -0.5103,-2.5487 0.4375,-0.7281 1.3802,2.652 2.6429,3.0814 9.0962,3.0915 9.2886,0.01 11.7209,1.4703 13.9192,8.3347 0.4284,1.3377 0.8648,2.3462 0.9701,2.2409 0.1053,-0.1053 -0.1013,-1.8763 -0.4506,-3.937 -0.723,-4.2185 -0.645,-4.4888 1.5493,-5.4062 0.6845,-0.2856 1.1756,-0.5894 1.0905,-0.6734 -0.4911,-0.4911 -13.4159,-2.4333 -17.8643,-2.6854 -3.7314,-0.2107 -5.4701,-0.4547 -6.0776,-0.8527 -1.4835,-0.9721 -3.1097,-4.2033 -5.3233,-10.5776 -1.1817,-3.4023 -2.2571,-6.3632 -2.3897,-6.5779 -0.4091,-0.6612 -0.7352,1.2182 -0.7726,4.4514 -0.041,3.3376 0.7989,8.5697 2.4636,15.3896 1.4774,6.0492 1.6425,8.7711 0.8911,14.7485 -1.4328,11.3948 0.1843,21.29 5.0721,31.0464 0.8709,1.7396 1.5078,3.2393 1.4136,3.3335 -0.3696,0.3696 -4.2569,-5.6605 -6.2589,-9.7119 -3.4529,-6.988 -4.4453,-11.3877 -5.0356,-22.3258 -0.4466,-8.2882 -0.8618,-10.2405 -3.295,-15.4766 l -1.848,-3.9765 -0.2826,-6.0807 c -0.1559,-3.3446 -0.4465,-6.8472 -0.647,-7.7849 -0.4476,-2.0991 -1.771,-4.7623 -3.7689,-7.5834 -0.8344,-1.1786 -2.1812,-3.4702 -2.9923,-5.0903 -2.0505,-4.099 -2.9092,-3.8773 -3.4489,0.89 -0.6501,5.7486 4.5031,25.63 15.184,58.5872 20.6743,63.7889 38.6328,102.3933 55.3802,119.0445 9.6704,9.6157 19.1149,13.3097 36.9782,14.463 11.6875,0.7554 20.3716,1.5432 20.0911,1.8237 -0.091,0.091 -4.5628,0.5813 -9.9458,1.0987 -7.9388,0.7625 -11.7108,0.9407 -19.9685,0.9438 -9.2947,0 -10.6161,-0.071 -15.182,-0.8891 -2.7512,-0.4911 -7.0619,-1.5139 -9.5802,-2.2733 -4.98,-1.5007 -5.6817,-1.4602 -5.8954,0.3423 -0.1488,1.2444 1.681,3.0388 4.0008,3.9248 0.9083,0.3463 1.6506,0.7635 1.6506,0.9255 0,0.5924 -5.1825,1.1676 -8.7489,0.9721 -3.4186,-0.1883 -5.6767,-0.5984 -17.3277,-3.1461 -6.5809,-1.44 -12.9755,-1.6192 -15.8968,-0.4476 -0.9822,0.3939 -1.7599,0.8648 -1.7285,1.045 0.03,0.1813 -0.5215,0.3605 -1.2293,0.398 -0.9863,0.051 -2.4019,-0.5185 -6.0361,-2.4374 -2.8394,-1.4986 -5.0722,-2.4586 -5.5572,-2.3907 -0.7524,0.1073 -0.6896,0.244 0.9002,1.9523 1.0167,1.0926 2.4333,2.1487 3.4945,2.6054 0.9822,0.4222 1.7052,0.8972 1.607,1.0561 -0.1013,0.159 -1.3498,0.3909 -2.7806,0.5165 -1.4308,0.1245 -5.0134,0.7017 -7.9601,1.2809 -7.2573,1.4278 -13.2428,1.9563 -19.1118,1.688 -9.1003,-0.4172 -14.5471,-1.5959 -26.6021,-5.7607 -5.3374,-1.8439 -8.7489,-2.815 -10.8956,-3.1006 l -3.1259,-0.4162 0.8435,-1.2424 c 0.8273,-1.2192 0.8435,-1.4035 0.8435,-9.6775 0,-19.4905 1.9462,-25.4396 9.642,-29.4839 5.3303,-2.8009 11.569,-3.5076 19.1139,-2.167 1.9654,0.3494 5.2604,0.641 7.3231,0.6491 3.3406,0.01 4.0707,-0.1063 6.6741,-1.0885 6.1373,-2.3159 11.0211,-6.9232 14.303,-13.495 1.4612,-2.9234 4.3177,-12.1542 3.8934,-12.5785 -0.091,-0.091 -0.5964,0.6177 -1.1311,1.5665 -1.8014,3.1927 -4.1405,6.6153 -5.6189,8.2193 -3.1208,3.3851 -5.8062,4.1952 -15.6437,4.7167 -5.0903,0.2693 -7.0619,0.5144 -8.4836,1.0551 -1.0186,0.3868 -1.852,0.5893 -1.852,0.4486 0,-0.1398 0.563,-1.1888 1.2506,-2.331 0.6875,-1.1412 1.2505,-2.2176 1.2505,-2.3898 0,-0.4344 -3.0125,-0.3939 -5.547,0.071 -2.1285,0.3929 -4.9911,1.6485 -6.5647,2.8788 -2.0829,1.6293 -0.7929,-1.049 1.5422,-3.2018 1.4905,-1.3741 2.816,-2.1528 4.6458,-2.731 0.5377,-0.1701 0.5914,-0.3099 0.2491,-0.6511 -0.2785,-0.2795 -1.6192,-0.4354 -3.7395,-0.4354 -3.0905,0 -3.4773,0.081 -5.9653,1.3184 -4.5861,2.2733 -8.5008,6.4411 -10.3943,11.0667 -0.6228,1.522 -0.7848,2.6682 -0.8091,5.7131 -0.02,2.0951 0.071,3.9168 0.2066,4.0484 0.1306,0.1306 1.126,-0.485 2.2115,-1.3701 5.063,-4.1233 10.3923,-6.2973 15.9302,-6.4978 l 3.4115,-0.1236 -3.215,0.3058 c -6.7652,0.6441 -12.4307,3.3285 -17.3013,8.1991 -4.8393,4.8392 -7.9854,12.8307 -9.5003,24.1364 -0.3726,2.7796 -0.887,4.9779 -1.4632,6.2518 -0.9123,2.014 -2.4566,3.9289 -3.1694,3.9289 -0.2208,0 -0.6592,-0.7635 -0.9741,-1.6961 -0.315,-0.9337 -1.4015,-4.0282 -2.4151,-6.8766 -3.0165,-8.4846 -4.7167,-15.1587 -6.1424,-24.1131 -0.7413,-4.6539 -0.6198,-22.2408 0.1883,-27.3058 2.3087,-14.4671 6.2903,-19.2304 20.0212,-23.9592 4.8311,-1.6637 6.3004,-2.3584 9.325,-4.4059 2.4353,-1.6475 6.6093,-5.5845 6.6093,-6.2335 0,-0.9468 -2.0354,-0.3575 -4.6236,1.3396 -3.8509,2.5245 -7.3818,4.0525 -12.702,5.4985 -5.7425,1.5604 -7.2685,2.0991 -9.7646,3.4509 -1.0814,0.5863 -2.0282,1.0045 -2.1042,0.9296 -0.1984,-0.1995 2.1974,-8.5585 3.8925,-13.579 1.9806,-5.865 3.9441,-10.3751 8.3357,-19.1524 4.5193,-9.0304 6.6559,-14.064 9.2471,-21.7851 2.4546,-7.315 3.1117,-10.2809 4.6965,-21.1765 1.3113,-9.0173 2.175,-12.8986 3.4064,-15.3136 0.7229,-1.4177 0.7442,-1.4288 2.2267,-1.1503 2.7542,0.5154 3.4904,0.3351 4.9344,-1.2131 2.496,-2.6763 3.0104,-6.6214 1.3558,-10.3984 -0.649,-1.4825 -0.7442,-1.5514 -1.8459,-1.3377 -2.3837,0.4638 -5.6129,2.3594 -6.6235,3.8874 -0.8678,1.3123 -0.9599,1.7487 -0.889,4.2316 0.071,2.3726 -0.071,3.0915 -0.9336,5.0266 -0.557,1.2415 -1.442,3.5603 -1.9665,5.1531 -0.5245,1.5929 -1.1746,3.1978 -1.445,3.5674 -0.4729,0.6461 -0.5184,0.6481 -1.1979,0.03 -1.0774,-0.9751 -2.4556,-4.3734 -3.1279,-7.711 -0.8415,-4.186 -0.5549,-16.2866 0.4931,-20.7542 2.2682,-9.6714 5.9582,-15.5222 12.7639,-20.241 1.6535,-1.1472 3.0094,-2.2054 3.0114,-2.3532 0.01,-0.9985 -4.6721,1.3325 -7.1388,3.5491 -4.5587,4.099 -7.8517,10.926 -10.5311,21.8287 -0.5448,2.2186 -1.0338,3.9866 -1.0875,3.9299 -0.051,-0.061 -0.7665,-2.6763 -1.5868,-5.8204 -2.1436,-8.2213 -4.0595,-14.7952 -6.4786,-22.2429 -2.5224,-7.7605 -3.0631,-10.1817 -3.5623,-15.9251 -0.7018,-8.0816 0.5701,-14.6261 4.3157,-22.2024 2.5457,-5.1511 5.7911,-9.5934 10.1878,-13.9445 3.4043,-3.3699 7.4203,-5.9156 9.3757,-5.944 0.5346,-0.01 1.8844,0.4111 2.9973,0.9306 3.0914,1.4399 5.6067,1.8652 8.0329,1.3559 4.0768,-0.8547 5.8579,-2.2521 11.491,-9.0112 1.8825,-2.2591 4.5557,-5.306 5.941,-6.7712 1.3842,-1.4643 2.1163,-2.3898 1.6242,-2.0577 -5.2352,3.5462 -7.7373,4.4616 -13.3957,4.9051 -6.8938,0.5397 -7.3232,0.5093 -7.3232,-0.5185 0,-0.4779 0.1661,-1.3042 0.3676,-1.8358 0.2015,-0.5306 0.3038,-1.0298 0.2258,-1.1078 -0.2835,-0.2825 -5.948,3.8732 -6.9717,5.1147 -1.1372,1.3801 -1.9635,3.7952 -1.9128,5.5905 0.041,1.4612 -0.4172,1.9706 -2.0141,2.2379 -6.19,1.0339 -10.3711,3.9228 -14.4043,9.9529 -6.0594,9.0577 -9.001,18.6896 -10.6627,34.9013 l -0.4253,4.1517 1.3255,3.1715 c 3.0216,7.2309 3.9087,9.6713 6.9738,19.1908 2.9204,9.0668 4.256,14.2301 4.741,18.3291 l 0.1752,1.4825 -3.2434,-2.3756 c -3.5015,-2.5659 -5.0549,-3.9765 -7.1358,-6.4847 -1.288,-1.5523 -1.3265,-1.5706 -1.1067,-0.5357 1.2333,5.7931 4.6579,11.003 8.4937,12.9218 3.2059,1.604 4.2256,2.9214 4.6529,6.0108 0.488,3.535 1.6414,7.7313 3.2292,11.7452 1.4429,3.6474 1.6171,4.3977 1.6171,6.9465 0,7.4142 -4.0443,19.692 -11.252,34.1581 -3.211,6.4442 -3.6383,6.8209 -5.622,4.9617 -1.1969,-1.123 -2.247,-3.2636 -4.0879,-8.3357 -0.6774,-1.8662 -1.364,-3.5279 -1.525,-3.692 -0.327,-0.3331 -2.6388,0.7342 -2.4333,1.123 2.5123,4.7491 3.3923,7.6198 4.5517,14.8478 0.399,2.49 0.9123,4.825 1.1392,5.1896 0.6592,1.0551 -0.1114,3.9431 -2.488,9.323 -7.9206,17.9291 -11.4292,31.6641 -12.778,50.0114 l -0.2491,3.3943 -0.7574,-1.0359 c -3.4399,-4.7076 -6.3369,-7.3495 -7.2391,-6.6012 -0.7727,0.642 -0.6046,0.9853 1.6728,3.4196 1.1857,1.2678 2.5831,2.976 3.1056,3.7962 0.5225,0.8212 1.3012,1.8946 1.7306,2.3857 0.7068,0.8071 0.8009,1.4065 0.9781,6.2508 0.3251,8.8562 1.9797,16.228 6.1962,27.6137 1.2596,3.3993 2.5375,7.3798 2.8403,8.845 0.6035,2.9153 0.5063,3.2454 -1.7437,5.9552 l -0.8101,0.9751 -1.7498,-0.886 c -2.2398,-1.1341 -5.2473,-1.1797 -8.6466,-0.1296 -1.3467,0.4151 -5.2766,2.1771 -8.7337,3.9147 -9,4.5233 -12.6544,5.5784 -15.8634,4.579 z m 59.8357,-42.6173 c 0.884,-0.02 2.2712,0.091 3.0834,0.2329 1.4115,0.2531 1.5776,0.1812 3.8306,-1.6658 3.1421,-2.575 5.0559,-3.1897 9.3504,-3.0013 3.9694,0.1731 3.7426,-0.2896 -0.7433,-1.521 -6.8816,-1.8875 -14.6007,0.2086 -18.2197,4.9486 -1.5361,2.0111 -1.5523,2.409 -0.071,1.6404 0.6379,-0.3301 1.8845,-0.6156 2.7685,-0.6338 z m -43.5824,-19.3225 c 1.1199,-0.5792 2.5011,-2.168 2.5011,-2.8768 0,-0.2532 -1.0359,-0.804 -2.3027,-1.2253 -3.1674,-1.0541 -4.4949,-2.0363 -5.6513,-4.184 -1.1614,-2.1539 -1.8429,-5.3496 -1.3984,-6.5516 0.2542,-0.6896 0.3514,-0.4708 0.5539,1.2567 0.1367,1.1665 0.6592,2.8494 1.1817,3.8094 1.6516,3.0347 5.702,5.149 8.5109,4.4443 1.1372,-0.2856 2.6693,-3.2849 2.6753,-5.2362 0,-2.9882 -1.9108,-7.4365 -4.3866,-10.1716 -1.3781,-1.5219 -1.609,-1.6586 -1.774,-1.046 -0.1043,0.3878 -0.3777,1.4288 -0.6076,2.3138 -0.2289,0.886 -0.725,2.011 -1.1017,2.5011 l -0.6845,0.8911 -0.01,-1.9654 c 0,-1.0805 -0.3503,-3.0095 -0.7625,-4.2864 -0.5214,-1.6171 -0.7554,-3.294 -0.7695,-5.5207 l -0.02,-3.1978 -2.173,2.3442 c -7.1237,7.6866 -7.7485,14.6928 -1.8693,20.9558 l 1.8389,1.9584 -1.7457,-0.2319 c -0.961,-0.1286 -2.6085,-0.6997 -3.6616,-1.2698 -1.0541,-0.5711 -1.9158,-0.9549 -1.9158,-0.8526 0,0.1012 0.3341,0.7797 0.7432,1.5067 0.5853,1.041 1.0784,1.4116 2.327,1.7447 1.9766,0.5286 4.6063,0.5468 5.5571,0.04 0.397,-0.2116 0.804,-0.3038 0.9033,-0.2045 0.1012,0.1012 -0.3079,0.4344 -0.9063,0.7432 -1.3599,0.7038 -3.9724,0.724 -5.5987,0.041 -1.6374,-0.6845 -1.5645,-0.1762 0.2603,1.8035 1.4652,1.5898 2.7654,2.4545 4.5708,3.0439 1.2101,0.3949 4.4747,0.061 5.7172,-0.5782 z m 59.0873,-35.7226 c 1.9139,-1.7741 2.571,-5.2635 1.4815,-7.871 -0.8162,-1.9533 0,-1.53 3.0165,1.5746 4.5942,4.7188 6.908,5.8012 8.8714,4.1487 1.4329,-1.205 1.7225,-2.7634 0.9843,-5.3 -0.7281,-2.5052 -2.4313,-4.742 -4.659,-6.1191 -1.5685,-0.9701 -2.0394,-1.0795 -4.6316,-1.0744 -2.0739,0 -3.5624,0.2369 -5.2929,0.8313 -2.5579,0.878 -3.0966,1.3043 -2.4556,1.9452 0.6339,0.6339 0.4658,0.9691 -0.4891,0.9691 -0.8414,0 -0.8779,0.081 -0.726,1.6971 0.1124,1.1939 0.081,1.3792 -0.1043,0.6248 -0.3534,-1.4399 -0.6248,-0.88 -1.1453,2.3685 -0.5235,3.2626 -0.1508,4.8179 1.4845,6.193 1.3589,1.1433 2.4414,1.1473 3.6656,0.01 z m -5.3566,-12.9866 c 0.3412,-0.5519 -1.3589,-1.766 -3.457,-2.4698 -2.5305,-0.8485 -2.9417,-1.1898 -1.1099,-0.9214 1.359,0.2005 4.3654,1.4612 5.5663,2.336 0.5225,0.3808 0.7898,0.2421 1.8804,-0.9731 2.0404,-2.2753 2.8019,-3.9997 2.7826,-6.3014 -0.051,-5.2554 -4.9799,-9.4526 -9.649,-8.2081 -3.0378,0.81 -4.6003,3.2302 -3.7183,5.7596 0.4536,1.3002 0.2369,1.3438 -2.4191,0.4851 -1.7295,-0.558 -1.8824,-0.558 -2.4525,0.01 -0.9286,0.9306 -0.718,3.779 0.4242,5.7283 1.5372,2.6226 3.8975,3.5937 11.7169,4.818 0.1356,0.02 0.3321,-0.1013 0.4354,-0.2674 z m 9.8556,-10.1919 c 0.884,-0.5984 2.2652,-1.694 3.0692,-2.4332 l 1.4612,-1.3448 2.0829,1.2536 c 1.5837,0.9539 2.1528,1.1453 2.3736,0.7969 0.16,-0.2511 0.2926,-0.5802 0.2957,-0.7301 0,-0.3777 -2.1954,-1.688 -2.8525,-1.6961 -1.4805,-0.02 -1.5605,-0.5316 -0.5377,-3.4398 0.5427,-1.5442 1.1321,-3.0884 1.3103,-3.4327 0.4364,-0.8415 2.1214,-0.803 3.8661,0.091 1.3873,0.7079 1.9756,0.5408 1.5948,-0.4526 -0.4577,-1.1928 -4.1526,-1.8308 -5.1156,-0.884 -0.3656,0.3605 -0.403,0.239 -0.1934,-0.6248 0.5103,-2.1011 1.5452,-4.0716 2.4515,-4.665 1.2455,-0.8172 2.5163,-0.5084 5.3921,1.3083 1.7984,1.1351 2.4535,1.3872 2.7725,1.0683 0.6318,-0.6319 -0.7372,-2.8637 -2.247,-3.6626 -1.4672,-0.7757 -3.8499,-0.8526 -5.4701,-0.1752 -1.8692,0.7807 -3.3618,2.8008 -4.1972,5.6807 -1.5088,5.1956 -2.6804,8.3043 -3.4985,9.2764 -0.4598,0.5458 -1.8663,1.5696 -3.1259,2.2743 -1.2587,0.7038 -2.2875,1.3873 -2.2845,1.5169 0,0.1306 0.1013,0.5975 0.2188,1.0369 0.2329,0.8698 0.2248,0.8719 2.6337,-0.7584 z m -43.0447,-22.2762 c 2.2318,-1.1503 3.1533,-2.3178 2.8647,-3.6302 -0.3251,-1.4824 -2.5741,-3.3375 -5.4924,-4.5314 -3.0783,-1.2586 -9.24,-1.6039 -12.9795,-0.727 -1.3144,0.3088 -3.6859,0.6683 -5.2696,0.8009 -1.5827,0.1317 -2.8788,0.3403 -2.8788,0.4638 0,0.4192 4.1041,2.4505 6.9657,3.4469 2.331,0.8121 3.4995,1.0005 6.3389,1.0217 2.4707,0.02 3.4813,0.1529 3.4833,0.4598 0,0.4728 -1.3862,1.8895 -1.852,1.8895 -0.159,0 -0.2896,0.2248 -0.2896,0.5002 0,1.3751 6.6031,1.5969 9.1093,0.3058 z m 5.7334,-5.2595 c 0.6551,-1.5675 0.6511,-2.4697 -0.02,-4.7339 -0.6653,-2.2388 -2.7796,-5.4559 -5.2098,-7.9246 -1.931,-1.9614 -4.496,-3.8408 -4.8109,-3.5259 -0.1023,0.1023 0.1256,0.7291 0.5063,1.3923 0.3818,0.6633 0.962,2.1701 1.2911,3.3487 0.3281,1.1797 1.0065,2.7867 1.5078,3.5725 l 0.9113,1.4288 -1.7407,-1.6607 c -1.9877,-1.8976 -4.4554,-3.2191 -7.232,-3.8732 -2.5355,-0.5974 -7.8122,-0.2785 -10.5827,0.6389 l -2.1437,0.7109 2.2673,0.9923 2.2672,0.9934 -0.8385,0.6491 c -1.288,0.9964 -4.2559,2.012 -6.6831,2.2864 -1.206,0.1367 -2.1923,0.3484 -2.1913,0.4699 0,0.4587 3.1451,2.1872 3.9765,2.1872 0.4759,0 2.7097,-0.4769 4.9627,-1.0602 7.5956,-1.9634 12.4176,-1.7406 17.5879,0.8121 2.2328,1.1027 2.3999,1.1372 2.2217,0.4527 -0.1063,-0.4071 0.2319,0.061 0.7523,1.045 1.04,1.9664 1.8734,3.0368 2.3645,3.0368 0.1762,0 0.5529,-0.557 0.8374,-1.2385 z m 51.3966,-12.1826 c 0.7838,-0.7837 0.7119,-1.13 -0.483,-2.3239 -0.8688,-0.8698 -1.3366,-1.045 -2.7897,-1.045 -3.6383,0 -3.8671,1.6991 -0.4192,3.1148 2.3138,0.9498 2.9517,0.9943 3.6919,0.2541 z m -42.7004,-1.7153 c 0.5964,-0.719 0.091,-1.6536 -0.8941,-1.6536 -0.6572,0 -0.8547,0.1934 -0.8547,0.8344 0,1.3457 0.9438,1.7882 1.7488,0.8192 z m -18.5316,-31.4889 c 0.3797,-0.4577 0.2298,-0.7402 -0.9387,-1.7711 -1.5817,-1.3973 -2.8363,-1.613 -3.1745,-0.5468 -0.3109,0.9782 0.02,1.3974 1.7396,2.1761 1.7964,0.8162 1.8136,0.8172 2.3736,0.1418 z m 7.0669,-4.8868 c 0.5023,-0.5023 0.5894,-4.9294 0.1013,-4.9294 -0.4871,0 -1.7943,1.768 -2.0445,2.7634 -0.2561,1.0227 0.3777,2.5953 1.0461,2.5953 0.2602,0 0.6652,-0.1934 0.9012,-0.4293 z m 57.5543,-20.2561 c 2.0799,-0.964 4.4798,-1.9381 5.3354,-2.167 0.8546,-0.2278 1.4835,-0.485 1.3974,-0.5711 -0.081,-0.091 -1.1017,-0.3311 -2.2571,-0.5448 -3.0783,-0.5691 -4.3582,-1.365 -7.9185,-4.9253 -3.5441,-3.5451 -4.3076,-3.8843 -7.7545,-3.454 -1.8622,0.2329 -4.8484,-0.2592 -4.8474,-0.7989 0,-0.1397 1.1655,-0.2602 2.5903,-0.2683 2.095,-0.01 2.9416,-0.1985 4.4392,-0.9762 1.931,-1.0025 2.972,-2.1214 2.972,-3.1917 0,-0.5853 -0.081,-0.5802 -1.1604,0.081 -1.4926,0.9093 -2.5862,0.9518 -2.2349,0.081 0.7595,-1.8723 0.9468,-2.653 0.7575,-3.1462 -0.3352,-0.8748 -2.5194,-1.5867 -4.8686,-1.5867 -1.8187,0 -2.3108,0.1397 -3.0328,0.8617 -0.4749,0.4739 -0.971,1.2931 -1.1027,1.8207 -0.1569,0.6248 -0.3341,0.807 -0.5093,0.5235 -0.1469,-0.239 -0.03,-1.4197 0.2541,-2.6237 0.7028,-2.9497 0.4112,-5.0589 -1.3761,-9.9285 -1.3751,-3.7477 -1.4885,-4.3299 -1.5189,-7.8011 -0.02,-2.0627 0.1013,-4.2732 0.2643,-4.9111 0.2309,-0.9073 0.1843,-1.1615 -0.2147,-1.1615 -0.8739,0 -3.4094,2.0627 -4.7207,3.8398 -3.6201,4.9061 -3.6191,13.6833 0,20.9872 1.7589,3.5482 2.2581,4.1861 5.3009,6.7703 1.5959,1.3548 2.404,2.4191 3.453,4.5425 3.3386,6.7601 7.1946,10.1827 11.572,10.2708 0.9671,0.02 2.569,-0.5134 5.1795,-1.7234 z m 4.4909,-11.0101 c 1.4197,-0.7219 7.5854,-5.0073 7.872,-5.471 0.568,-0.9175 -4.5243,-3.7396 -8.0887,-4.4828 -3.3385,-0.6967 -6.5039,-0.1884 -9.3868,1.5077 -0.6369,0.3737 -0.642,0.4486 -0.091,1.2374 0.9772,1.3944 0.7484,2.7685 -0.6875,4.1223 -0.7007,0.6613 -1.0632,1.203 -0.803,1.203 0.2592,0 1.5169,0.5012 2.7938,1.1139 1.2769,0.6116 2.7239,1.2475 3.215,1.4115 1.1543,0.3848 3.8013,0.061 5.1754,-0.642 z m -5.9976,-11.333 c 1.611,-0.5265 3.4458,-1.3083 4.0767,-1.7376 3.8985,-2.649 3.4469,-9.8071 -0.7544,-11.9649 -2.2773,-1.1706 -5.787,-0.9995 -8.6942,0.4232 -4.1152,2.0151 -8.3124,6.9789 -8.9899,10.6314 -0.4,2.1558 0.4111,1.93 1.4602,-0.4061 1.0673,-2.3796 1.6526,-2.6712 0.7301,-0.3645 -0.9286,2.3198 -0.799,2.8656 0.6804,2.8656 0.9944,0 1.4936,-0.2653 2.3584,-1.2505 0.6045,-0.6876 1.3397,-1.2506 1.6343,-1.2506 0.3463,0 0.1428,0.3696 -0.5721,1.0369 -0.6106,0.5701 -1.1098,1.125 -1.1098,1.2334 0,0.1083 0.7098,0.5113 1.5766,0.8951 0.8678,0.3838 1.7539,1.0278 1.9695,1.4308 0.3869,0.721 0.4112,0.723 1.5493,0.071 0.6359,-0.3625 2.4738,-1.0896 4.0849,-1.6161 z m -78.9212,-10.7336 c 4.7197,-5.4933 13.0413,-13.819 17.2294,-17.2375 6.1465,-5.0185 9.8617,-11.4404 12.0388,-20.807 0.5235,-2.254 0.6238,-4.5476 0.6319,-14.468 0.01,-11.0586 0.051,-11.8657 0.7149,-13.0383 l 0.7037,-1.2505 0.2471,2.8585 c 0.6379,7.3718 0.9873,20.9194 0.6531,25.2675 -0.322,4.1719 -0.9873,8.3135 -1.6232,10.0977 -0.9538,2.6773 5.7162,-7.6583 8.0695,-12.5036 5.2392,-10.7853 6.5434,-18.6259 4.4625,-26.8269 -1.0126,-3.9927 -1.0835,-4.6539 -0.3534,-3.3112 0.9194,1.692 2.3513,7.231 2.412,9.3301 0.1195,4.1405 1.3225,1.369 1.5888,-3.6616 0.1681,-3.1654 0.1012,-3.6524 -1.0713,-7.234 -0.6876,-2.1123 -1.1443,-3.8398 -1.0147,-3.8398 0.477,0 2.6105,3.6555 3.4955,5.9906 0.6056,1.5978 0.9286,3.2048 0.964,4.7906 0.041,2.0181 0.1145,2.2662 0.4577,1.607 1.5118,-2.9032 1.5604,-10.3468 0.1013,-14.7101 -0.4618,-1.3751 -1.6475,-3.7061 -2.6358,-5.1795 -1.4663,-2.1872 -2.0526,-2.7633 -3.1877,-3.134 -0.7655,-0.2501 -1.445,-0.4009 -1.5098,-0.3351 -0.071,0.061 1.0238,1.7963 2.4201,3.8479 2.2581,3.3172 3.1857,5.0063 4.257,7.7474 0.6299,1.612 -0.02,0.7412 -1.3316,-1.7863 -1.7001,-3.2757 -8.1008,-9.9073 -10.2384,-10.608 -2.1315,-0.6997 -2.1183,-0.5954 0.4425,3.5532 0.9924,1.606 -0.3787,0.2532 -1.9482,-1.9239 -1.3761,-1.9077 -2.1751,-2.5001 -4.1567,-3.0864 l -0.9529,-0.2815 0.5276,1.7781 c 0.7736,2.6034 0.3959,2.9163 -0.5468,0.4527 -0.4456,-1.1656 -0.9357,-2.3594 -1.0886,-2.6541 -0.3878,-0.7483 -1.4511,-0.8992 -1.4511,-0.2055 0,0.968 -0.6612,0.6126 -0.7797,-0.4203 -0.1772,-1.533 -1.2961,-1.4156 -3.7567,0.396 -1.7609,1.2961 -2.6267,2.3401 -4.6823,5.6432 -2.73,4.3866 -3.6119,5.6473 -3.6302,5.1855 0,-0.163 0.9732,-1.8976 2.1761,-3.8549 1.203,-1.9584 2.1204,-3.6272 2.0394,-3.7092 -0.2005,-0.2005 -4.8919,4.2904 -6.346,6.0736 -0.9457,1.1604 -1.0571,1.2273 -0.5954,0.3574 0.3129,-0.5893 1.0116,-1.6272 1.5523,-2.3067 l 0.9833,-1.2354 -1.7579,1.3326 c -4.0221,3.0469 -5.1309,6.8614 -4.0919,14.0732 0.2197,1.53 0.5215,2.9153 0.6693,3.0773 0.1468,0.161 0.6278,-0.2896 1.0683,-1.0015 1.2374,-2.0029 1.2506,-1.2252 0.02,1.2121 -2.2631,4.4828 -3.4539,12.6606 -2.8393,19.4997 0.1944,2.1609 0.4,4.0899 0.4577,4.2863 0.061,0.1965 0.2096,-1.7396 0.3392,-4.3015 0.1296,-2.5629 0.4172,-6.0189 0.639,-7.6806 0.4091,-3.0753 1.5533,-6.7723 2.0961,-6.7723 0.4273,0 1.1442,4.5932 1.1888,7.6168 0.02,1.4106 -0.1013,5.1359 -0.2613,8.2801 -0.242,4.6296 -0.1934,6.2669 0.2552,8.6212 0.5974,3.13 2.0039,8.1434 2.2237,7.9237 0.071,-0.071 -0.2593,-2.1387 -0.7392,-4.5892 -1.0714,-5.471 -1.0957,-8.2395 -0.1155,-13.3521 0.5954,-3.1057 0.72,-4.7927 0.5792,-7.8021 -0.1012,-2.1123 -0.061,-3.8408 0.091,-3.8408 0.1508,0 0.4759,1.6485 0.724,3.6615 0.4151,3.3791 0.3898,3.9654 -0.321,7.5915 -1.0592,5.3992 -0.9843,7.2847 0.5245,13.1841 0.7078,2.7685 1.3771,5.2757 1.4875,5.5703 0.4041,1.0815 0.7453,-2.8413 0.7767,-8.9311 0.03,-4.9901 0.1742,-6.7915 0.7351,-8.9302 1.0157,-3.8782 0.9377,-5.5804 -0.3493,-7.6107 -1.3934,-2.1953 -0.88,-2.1781 0.5913,0.02 1.923,2.8737 2.0475,4.3147 0.8284,9.5549 -0.2289,0.9822 -0.5448,4.8402 -0.7018,8.5737 -0.3068,7.2593 -0.5154,8.2335 -2.4829,11.5639 -1.2971,2.1963 -1.2222,2.7381 0.1722,1.2465 3.9066,-4.178 5.4538,-8.2972 6.2244,-16.5682 0.2096,-2.2561 0.8,-5.628 1.3103,-7.4953 0.5104,-1.8662 1.1483,-4.1921 1.4187,-5.1673 0.2693,-0.9761 0.4962,-2.6641 0.5022,-3.7517 0.01,-1.9036 0.03,-1.9431 0.5347,-1.0824 0.6511,1.1159 0.4273,3.9552 -0.7463,9.4688 -0.4607,2.1629 -1.1756,6.1475 -1.5877,8.8542 -1.1919,7.8062 -3.212,13.0423 -6.3136,16.3586 -1.1898,1.2718 -2.6814,2.2551 -5.6554,3.7284 -2.2217,1.1017 -4.657,2.5639 -5.4114,3.2494 -1.4996,1.363 -1.4591,1.3701 1.0552,0.1823 0.9427,-0.4455 1.8723,-0.7574 2.0647,-0.6926 0.1934,0.061 -1.0612,1.8034 -2.7867,3.8641 -4.4342,5.2928 -6.2893,7.7373 -9.8972,13.0352 -3.6383,5.3435 -3.5613,5.2929 2.2146,-1.4288 z m 36.7716,-45.0344 c 0.091,-0.9691 -0.2542,-4.9912 -0.7605,-8.9383 -0.9792,-7.632 -1.1594,-11.0536 -0.564,-10.685 0.1965,0.1215 0.3585,0.8942 0.3595,1.7184 0,0.8233 0.2329,2.9437 0.5154,4.7117 0.4131,2.5811 0.7949,6.0978 1.3366,12.3122 0.061,0.7017 -0.1346,1.3954 -0.5579,1.9736 -0.4334,0.5933 -0.4709,0.4678 -0.3291,-1.0926 z m 1.7032,-2.4769 c 0.091,-0.3929 0.326,-1.4379 0.5286,-2.3219 0.7331,-3.2089 0.8607,-11.0039 0.2379,-14.5571 -0.6845,-3.9056 -0.6896,-4.018 -0.2015,-4.018 0.64,0 1.764,3.0428 2.0941,5.6675 0.3625,2.892 0,6.9009 -0.9974,10.767 -0.6005,2.3462 -2.086,6.3358 -1.6617,4.4625 z m -23.1684,-17.6982 c 0.6846,-1.364 0.957,-2.4799 0.9873,-4.0535 0.03,-1.7528 0.161,-2.1953 0.6592,-2.2905 0.9539,-0.1843 2.4191,1.5047 2.4191,2.7897 0,2.0617 -2.0474,4.7036 -4.024,5.1927 l -0.9873,0.244 z m -3.4063,-7.0396 c 0.1711,-0.7362 0.3108,-2.1427 0.3118,-3.1249 v -1.7863 l -0.6916,0.8932 -0.6926,0.8931 0.1985,-0.8931 c 0.6126,-2.7584 0.8809,-3.2151 1.8885,-3.2151 1.6495,0 2.8849,2.1042 2.3907,4.0737 -0.241,0.959 -2.9203,4.499 -3.4053,4.499 -0.1772,0 -0.1772,-0.5782 0,-1.3396 z m 28.8348,76.6428 c 0.559,-0.56 0.5276,-1.7326 -0.071,-2.5183 -0.6774,-0.8921 -1.2505,-0.7737 -1.6768,0.3473 -0.6613,1.7386 0.6035,3.3122 1.7457,2.171 z m -3.1441,-6.5758 c 0,-0.6208 -0.1985,-0.8547 -0.726,-0.8547 -0.8871,0 -1.2921,0.8972 -0.717,1.5908 0.5944,0.7169 1.443,0.2836 1.443,-0.7361 z m -104.8307,-19.2516 c 0.02,-7.8598 0.4456,-10.1017 1.5483,-8.1302 0.1914,0.3422 0.4172,0.5438 0.5002,0.4465 0.2593,-0.2987 -1.53,-13.6407 -2.1001,-15.6609 -0.6025,-2.1365 -1.7376,-3.4053 -3.8925,-4.3552 -1.7082,-0.7523 -5.1794,-1.2769 -5.1794,-0.7817 0,0.1884 1.2931,1.1645 2.8738,2.171 3.9481,2.5123 3.9056,2.3796 4.1314,13.0342 0.1033,4.8626 0.4222,10.2668 0.7311,12.374 0.3017,2.0587 0.5559,4.8514 0.565,6.2073 0.01,1.9746 0.091,2.332 0.4111,1.7953 0.2501,-0.4212 0.402,-3.056 0.4111,-7.1003 z m 92.9711,4.7916 c 0.061,-0.5346 -0.1418,-1.1301 -0.485,-1.4146 -0.5114,-0.4253 -0.6603,-0.399 -1.0896,0.1873 -0.9336,1.2769 -0.5529,2.4404 0.7382,2.2561 0.483,-0.071 0.7655,-0.4162 0.8364,-1.0288 z m -113.1684,-9.2734 c 0,-0.2967 2.255,-6.2903 4.6873,-12.453 0.3271,-0.8303 0.4719,-0.7301 4.1669,2.888 3.9461,3.8651 7.8203,6.9586 8.2162,6.5616 0.2997,-0.2987 -8.997,-9.1306 -12.218,-11.6074 -4.5112,-3.4692 -4.7502,-3.5907 -7.0457,-3.5907 -1.1514,0 -2.0931,0.1417 -2.0931,0.3139 0,0.1731 0.4071,1.3994 0.9063,2.7239 0.4982,1.3245 1.2141,3.7294 1.5908,5.3445 0.7108,3.0479 1.4835,9.4567 1.1969,9.9255 -0.091,0.1468 0,0.2673 0.2137,0.2673 0.2086,0 0.3787,-0.168 0.3787,-0.3736 z m 53.3793,-6.6174 c 0.8546,-0.8546 0.6916,-1.9077 -0.3554,-2.3057 -0.5033,-0.1913 -1.9787,-0.3483 -3.2768,-0.3483 h -2.3614 l 0.8668,0.9407 c 1.9351,2.1022 4.0352,2.8039 5.1268,1.7133 z m -36.8992,-9.3513 c -0.723,-1.3509 -7.8386,-7.8295 -9.6876,-8.8208 l -1.9594,-1.0501 1.1868,1.4987 c 1.2799,1.6151 6.1262,6.1343 8.4471,7.876 1.6536,1.2404 2.5265,1.4551 2.0131,0.4962 z m 64.28,-12.208 c 1.1563,-1.1564 1.3052,-1.8662 0.5255,-2.5133 -0.4223,-0.3503 -0.7979,-0.1691 -2.0232,0.9742 -1.0338,0.964 -1.4348,1.5887 -1.2789,1.9938 0.3483,0.9093 1.6212,0.7007 2.7766,-0.4547 z m -84.6384,-3.6585 c -0.4425,-1.0318 -1.4622,-2.2844 -2.8282,-3.4722 l -2.1366,-1.8581 -0.9731,-3.8246 c -0.5347,-2.1042 -1.0551,-4.2671 -1.1554,-4.8069 -0.1012,-0.5407 -0.326,-0.9832 -0.5002,-0.9832 -0.1742,0 -0.3169,2.2297 -0.3169,4.9536 0,4.412 -0.081,5.0519 -0.7139,5.861 -0.3929,0.4992 -0.7149,1.0632 -0.7149,1.2526 0,0.4567 3.6545,0.8151 4.0899,0.401 1.0551,-1.0005 2.9709,0.3372 4.5891,3.2028 1.286,2.2794 1.7356,1.7842 0.6602,-0.726 z m 92.3746,-9.9124 c 2.9042,-0.9579 3.6808,-2.8758 1.6931,-4.178 -1.048,-0.6865 -1.9574,-0.4293 -3.6069,1.0187 -1.364,1.1969 -2.4039,2.9983 -2.8049,4.8554 l -0.2572,1.1909 1.7386,-1.1959 c 0.9559,-0.6582 2.4131,-1.4187 3.2373,-1.6911 z m -112.3553,-5.9895 c 0.4112,-0.4547 0.4992,-0.8344 0.2744,-1.1939 -0.2713,-0.4364 -0.5245,-0.3331 -1.4551,0.5954 -0.6197,0.6177 -1.0166,1.3012 -0.8819,1.5189 0.2875,0.4658 1.1614,0.081 2.0626,-0.9204 z m 125.745,-12.2525 c 1.1543,-0.4324 3.1421,-1.7528 5.1045,-3.3902 2.9528,-2.4647 5.9855,-4.1193 7.554,-4.1193 0.3099,0 1.7599,0.561 3.2231,1.2455 1.4622,0.6846 4.0555,1.6901 5.7638,2.2328 2.7309,0.8688 3.6636,0.9873 7.7484,0.9873 4.5142,0 4.7137,-0.03 7.1439,-1.1827 1.3751,-0.6501 2.9588,-1.6141 3.5188,-2.1427 1.1817,-1.1159 3.2302,-3.9765 3.0064,-4.2002 -0.081,-0.081 -1.1037,0.5913 -2.2672,1.4986 -2.8859,2.2531 -4.8564,3.0611 -7.4933,3.0712 -2.7623,0.01 -3.7972,-0.5316 -7.3585,-3.862 -3.2495,-3.0388 -5.0418,-4.0778 -7.0366,-4.0778 -1.765,0 -5.8913,1.2536 -6.4867,1.9705 -0.3342,0.4031 -0.5671,0.4395 -0.9235,0.1438 -0.641,-0.5316 -6.8392,0.1367 -8.3064,0.8952 -0.5924,0.3058 -1.9321,1.5594 -2.9761,2.7846 -2.8555,3.3497 -4.5719,4.9567 -5.8781,5.5025 -1.5402,0.643 -4.3026,0.6268 -6.185,-0.041 -2.0991,-0.7402 -1.7194,0.01 0.6936,1.3741 3.692,2.086 7.789,2.5649 11.1549,1.3063 z m -132.9051,-6.9161 c 0.7534,-0.9508 1.3691,-1.848 1.3691,-1.9938 0,-0.1458 -0.5803,-0.4435 -1.2891,-0.6612 -1.5857,-0.4871 -2.2844,-0.1225 -3.3274,1.7336 -0.8354,1.4865 -0.8951,1.7568 -0.3848,1.7568 0.1965,0 0.3575,-0.1853 0.3575,-0.4121 0,-0.9012 1.8297,-2.8029 2.6975,-2.8029 0.481,0 0.8749,0.081 0.8749,0.1691 0,0.4689 -2.3401,3.4034 -2.7148,3.4034 -0.2592,0 -0.3574,0.2906 -0.245,0.722 0.2349,0.8981 0.6957,0.567 2.6621,-1.9149 z m 7.5135,1.8359 c -0.2288,-0.2289 -0.5356,-0.2977 -0.6804,-0.1529 -0.1448,0.1448 -0.03,0.407 0.2521,0.5822 0.6673,0.4121 0.968,0.1104 0.4283,-0.4293 z m 29.2733,-14.8427 c 1.3934,-1.4703 2.4485,-2.9376 2.4485,-3.4075 0,-0.166 -1.124,0.7139 -2.4971,1.9554 -1.3741,1.2404 -2.4991,2.3766 -2.5011,2.5244 0,0.721 1.4197,0.1205 2.5497,-1.0723 z m 1.5433,-6.506 c 0.8921,-0.9316 0.9538,-1.1311 0.5133,-1.6627 -0.2764,-0.3321 -1.0551,-0.8354 -1.7315,-1.1189 -1.1199,-0.4679 -1.2728,-0.4567 -1.6971,0.1235 -0.7311,1.0005 -0.5732,2.5305 0.327,3.1603 1.1028,0.7716 1.4278,0.7089 2.5883,-0.5022 z m 9.0951,0.5539 c 0.3393,-0.4081 0.051,-0.8557 -1.4743,-2.3219 -1.6161,-1.5503 -3.1431,-2.3331 -3.1431,-1.6101 0,0.3261 3.6494,4.4363 3.939,4.4363 0.1428,0 0.4486,-0.2269 0.6784,-0.5043 z m 0.061,-4.2833 c -0.6086,-0.6268 -1.1058,-1.3529 -1.1058,-1.6131 0,-0.3483 -0.1225,-0.3716 -0.4647,-0.091 -0.2562,0.2116 -0.8405,0.2875 -1.2982,0.1681 -0.6157,-0.1611 -0.7898,-0.091 -0.6663,0.2825 0.091,0.2754 0.5549,0.5812 1.0298,0.6794 1.2324,0.2552 1.9047,0.7433 2.6814,1.9473 0.562,0.8698 0.7017,0.9407 0.804,0.408 0.071,-0.3625 -0.3595,-1.1442 -0.9802,-1.7852 z m -50.8691,-43.1228 1.2253,-0.758 -0.799,-0.849 c -0.9022,-0.961 -1.4784,-1.068 -2.0505,-0.378 -0.2866,0.345 -0.2795,0.586 0.03,0.893 0.322,0.322 0.32,0.521 0,0.849 -1.1554,1.155 -0.1236,1.311 1.605,0.243 z m -0.962,-1.029 c 0,-0.197 0.1611,-0.358 0.3575,-0.358 0.1964,0 0.3564,0.161 0.3564,0.358 0,0.196 -0.16,0.357 -0.3564,0.357 -0.1964,0 -0.3575,-0.161 -0.3575,-0.357 z m 34.2938,-18.475 c 0,-0.457 -3.7122,-4.03 -4.1861,-4.03 -1.1624,0 -0.164,1.835 1.7569,3.226 1.3994,1.014 2.4292,1.354 2.4292,0.804 z m 1.0714,-1.886 c 0,-0.709 -2.5973,-3.216 -3.3325,-3.216 -0.6258,0 -0.4587,0.294 1.0106,1.786 1.7376,1.765 2.3219,2.124 2.3219,1.43 z m -0.7149,-2.93 c 0,-0.577 -0.1053,-0.68 -0.397,-0.389 -0.2187,0.219 -0.2896,0.572 -0.1579,0.786 0.3696,0.598 0.5549,0.466 0.5549,-0.397 z m -30.455,-13.333 c 0.6369,-0.389 1.1594,-0.797 1.1604,-0.907 0,-0.111 -0.48,-0.557 -1.0693,-0.993 -0.9721,-0.719 -1.0713,-0.733 -1.0713,-0.152 0,0.351 -0.3251,0.841 -0.723,1.089 -0.5924,0.371 -0.6522,0.582 -0.3332,1.18 0.2147,0.4 0.4992,0.674 0.6339,0.608 0.1337,-0.07 0.7645,-0.437 1.4025,-0.825 z m 31.4038,432.1315 c -0.7726,-0.8536 -0.7483,-1.5948 0.081,-2.3431 1.5918,-1.441 5.4103,-1.0005 7.6046,0.8769 l 1.1919,1.0187 -1.8308,0.01 c -1.0065,0.01 -2.5143,0.2562 -3.3497,0.5508 -2.0029,0.7068 -2.977,0.6764 -3.695,-0.1174 z m 23.7637,-11.8626 c -3.6251,-1.287 -9.4405,-6.2609 -10.6181,-9.08 -0.963,-2.3057 -0.6217,-4.3795 1.0166,-6.1779 1.6232,-1.7822 5.94,-0.403 7.23,2.3097 0.4061,0.8547 0.719,2.5994 0.8496,4.7451 0.162,2.651 0.3838,3.6768 1.0096,4.6843 0.8961,1.4389 2.9709,3.0044 4.4706,3.3709 0.5417,0.1317 1.0744,0.3838 1.1817,0.558 0.3504,0.566 -3.1856,0.2845 -5.14,-0.4101 z m 5.7466,-30.2616 c 0.6744,-1.9837 0.6774,-2.1437 0.091,-4.6651 -0.5802,-2.4799 -0.5792,-2.6469 0.01,-3.3051 0.8891,-0.9812 2.1153,-0.8638 3.0277,0.2906 0.643,0.8131 0.7422,1.2819 0.5731,2.7269 -0.1124,0.959 -0.5447,2.406 -0.9609,3.215 -0.7332,1.4227 -2.7381,3.7922 -3.21,3.7922 -0.1276,0 0.081,-0.9245 0.4668,-2.0545 z m -0.8091,-15.5789 c 0,-0.081 1.045,-0.8253 2.3229,-1.6576 2.809,-1.8298 5.8528,-5.0367 7.0082,-7.3819 0.6704,-1.363 0.8476,-2.2915 0.8395,-4.4058 -0.01,-2.9336 -0.2046,-3.4318 -2.9589,-7.6644 -0.889,-1.366 -1.9107,-3.4307 -2.2712,-4.5861 -1.3397,-4.3066 -0.5813,-12.6353 1.6617,-18.242 1.0591,-2.649 3.0489,-6.3015 3.4317,-6.3015 0.1306,0 0.2339,2.0495 0.2288,4.5547 -0.01,5.6584 0.4486,8.6385 2.4566,15.9465 1.9189,6.9859 2.3178,11.0191 1.4318,14.466 -1.1928,4.6367 -4.1537,8.757 -8.6993,12.1057 -2.2135,1.6303 -5.4518,3.5117 -5.4518,3.1664 z m 179.3055,-24.6599 c -2.1913,-1.4885 -3.8297,-4.4332 -4.424,-7.954 -0.157,-0.9286 -0.1074,-1.5645 0.1326,-1.7133 0.2106,-0.1296 0.3828,-0.071 0.3828,0.1296 0,0.8799 2.4646,3.0439 4.7926,4.2053 3.2758,1.6354 4.1375,2.4424 4.1375,3.8722 0,2.3057 -2.6459,3.0753 -5.0215,1.4602 z m 37.2142,-2.49 c -0.6643,-0.6886 -2.0313,-1.5918 -3.0368,-2.009 -2.889,-1.1969 -3.4105,-1.5068 -3.616,-2.1548 -0.479,-1.5078 1.4044,-2.8252 3.1117,-2.1761 2.3695,0.9012 5.1096,4.6873 4.8584,6.7125 -0.1093,0.8769 -0.1123,0.8759 -1.3173,-0.3726 z m -190.1799,-40.4616 c -1.1351,-0.5944 -1.3133,-1.9928 -0.4172,-3.2717 1.2718,-1.8166 5.8397,-3.1796 8.3378,-2.489 l 1.2829,0.3545 -2.1973,1.0389 c -1.282,0.6065 -2.5832,1.5452 -3.1249,2.255 -0.5093,0.6694 -1.3721,1.5331 -1.9158,1.9199 -0.8932,0.636 -1.0835,0.6552 -1.9655,0.1924 z m 190.7256,-28.7356 c -0.648,-1.4035 -1.7548,-2.3685 -5.4103,-4.7197 -1.4419,-0.9266 -1.8075,-1.366 -1.8956,-2.2753 -0.1883,-1.9392 2.0151,-2.8758 4.1456,-1.763 2.2672,1.1848 3.7284,3.5218 4.3522,6.9637 0.6187,3.4104 -0.01,4.3572 -1.1919,1.7943 z m -101.6824,-21.0135 c 0,-0.1762 0.3999,-1.0207 0.889,-1.8754 0.4891,-0.8556 0.8901,-1.3092 0.8932,-1.0095 0,0.3007 -0.2532,0.9134 -0.5681,1.3629 -0.9174,1.3093 -0.2795,1.3225 0.9113,0.02 1.3225,-1.448 1.4653,-0.8202 0.1651,0.725 -0.8607,1.0228 -2.2905,1.5088 -2.2905,0.7787 z m -3.5725,-3.0297 c 0,-0.071 0.2815,-0.3554 0.6258,-0.6248 0.566,-0.4445 0.5792,-0.4314 0.1347,0.1347 -0.4668,0.5954 -0.7605,0.7848 -0.7605,0.4901 z m -150.8696,-19.4278 c 0.1367,-1.1564 0.02,-2.1447 -0.3747,-3.0803 -0.6845,-1.6384 -0.7341,-2.7756 -0.1468,-3.3629 1.2647,-1.2647 3.1441,0.5225 3.1441,2.9902 0,1.8399 -0.4951,3.2626 -1.5158,4.3512 -1.1068,1.1817 -1.3316,0.9984 -1.1068,-0.8982 z m 155.0203,-75.7852 c 0.4161,-0.1812 1.5411,-0.4405 2.5001,-0.5751 0.9599,-0.1347 3.4165,-0.6319 5.4599,-1.1058 3.9816,-0.9225 5.2646,-0.9215 2.089,0 -3.9451,1.1473 -11.8656,2.4708 -10.049,1.6789 z m -97.7485,-6.7642 c -1.3569,-0.7199 -3.9239,-4.0666 -3.9239,-5.1156 0,-0.6876 0.5296,-0.884 0.8759,-0.3241 0.1114,0.1813 1.4875,0.7565 3.0581,1.28 3.6747,1.2232 4.8767,2.7775 3.2717,4.2296 -0.8465,0.7655 -1.7437,0.7473 -3.2818,-0.071 z m 13.4655,-2.3694 c -1.7437,-1.6708 -2.1315,-2.9305 -1.1533,-3.7426 0.8222,-0.6815 1.9057,-0.091 2.8737,1.5594 0.9691,1.6525 1.2071,3.7851 0.4223,3.7851 -0.2592,0 -1.2232,-0.721 -2.1427,-1.6019 z m -25.5418,-1.2243 c 1.0996,-1.5928 1.4885,-2.5315 1.5847,-3.8256 0.2339,-3.1229 2.2996,-3.9309 3.5137,-1.3731 0.5529,1.1655 0.5478,1.3245 -0.1013,2.7553 -0.7786,1.7336 -1.775,2.7269 -3.8104,3.8023 -2.5365,1.3407 -2.8261,1.0106 -1.1918,-1.3589 z m -14.6332,-2.4768 c -1.3062,-0.8293 2.2733,-3.2069 4.1304,-2.7431 1.125,0.2804 2.2227,1.1725 2.2227,1.8074 0,0.8729 -5.2362,1.6435 -6.3531,0.9357 z m -4.4524,-5.6189 c -1.3032,-0.7068 -1.2394,-1.1534 0.2562,-1.7782 1.605,-0.6703 3.4014,-0.6592 4.3826,0.03 2.1517,1.5078 -2.1174,3.1188 -4.6388,1.7508 z m 45.3241,-8.1079 -1.0247,-0.4547 2.1538,-1.5098 c 1.1837,-0.8313 2.4778,-1.5108 2.8747,-1.5108 0.8982,0 1.9159,0.9762 1.7731,1.7022 -0.3007,1.526 -3.8661,2.6196 -5.7769,1.7731 z m -15.4179,-8.1019 c -1.1786,-0.4779 -3.3061,-3.0763 -3.7061,-4.5273 -0.2045,-0.7392 -0.32,-1.3964 -0.2572,-1.4592 0.061,-0.061 0.8222,0.2714 1.687,0.7443 0.8648,0.4719 2.1751,1.049 2.9112,1.283 2.1295,0.6743 3.052,2.5365 1.8511,3.7375 -0.6116,0.6116 -1.36,0.6784 -2.486,0.2217 z m -43.872,-7.4578 c -0.9478,-1.048 -0.721,-1.3387 1.5989,-2.0404 l 2.1893,-0.6632 0.7007,0.8647 0.7007,0.8648 -0.9458,0.8141 c -1.1877,1.0217 -3.3891,1.1048 -4.2438,0.16 z m 20.1994,-5.4913 c -0.5762,-0.5752 -0.5205,-1.7468 0.2299,-4.8575 0.5954,-2.4707 0.6592,-2.573 1.2212,-1.9523 0.8121,0.8972 1.692,3.0895 1.692,4.2145 0,2.2479 -1.9118,3.8266 -3.1431,2.5953 z m -18.6471,-0.5154 c -2.1021,-0.7068 -2.9517,-1.8339 -2.1295,-2.8242 0.6623,-0.7969 1.7235,-0.6238 3.616,0.5904 1.6668,1.0693 2.0283,1.53 1.4602,1.8642 -0.5255,0.3098 -2.4201,0.5468 -2.9467,0.3696 z m -54.2086,-14.138 c -0.4425,-0.2137 -0.804,-0.5124 -0.804,-0.6643 0,-0.4303 3.7527,-2.4717 4.5425,-2.4717 0.7574,0 1.8875,1.0359 1.8875,1.7295 0,0.7027 -2.2378,1.8409 -3.5724,1.8166 -0.6876,-0.01 -1.6121,-0.1975 -2.0536,-0.4101 z m 140.6565,-1.5513 c -15.4037,-1.9645 -43.0336,-9.0496 -50.5471,-12.9644 l -1.7862,-0.9305 4.4656,-0.24 c 13.1466,-0.7099 26.5231,-5.1167 37.3296,-12.2991 4.1719,-2.7729 8.3094,-5.8499 9.1974,-6.8389 0.5995,-0.668 0.5884,-0.731 -0.2673,-1.534 -1.3214,-1.242 -1.126,-2.235 0.8739,-4.444 1.1493,-1.27 1.853,-2.41 2.013,-3.266 0.3909,-2.082 -0.1012,-6.146 -1.1645,-9.626 -0.7776,-2.548 -0.9771,-3.9 -0.97,-6.599 0,-3.912 0.3989,-5.236 3.7182,-12.634 2.8556,-6.365 2.8606,-6.402 1.0987,-8.728 -1.6758,-2.212 -1.7386,-2.489 -2.1558,-9.537 -0.1894,-3.205 -0.5559,-6.08 -0.9103,-7.152 -0.9043,-2.733 -2.6804,-4.929 -4.8636,-6.018 -3.6241,-1.807 -5.6564,-1.159 -10.5877,3.367 -4.6924,4.307 -6.4422,4.52 -8.8188,1.068 -0.6025,-0.874 -1.5908,-2.145 -2.1963,-2.823 l -1.1017,-1.233 -1.9139,1.038 c -1.1736,0.636 -4.2853,3.323 -8.0461,6.951 -6.592,6.358 -8.8329,8.056 -13.019,9.865 -4.8048,2.076 -6.7267,2.435 -13.0413,2.437 -4.978,0 -6.0544,-0.105 -8.3429,-0.824 -1.4449,-0.454 -2.5699,-0.88 -2.5001,-0.946 0.071,-0.07 1.2516,0.168 2.6267,0.52 7.5297,1.923 14.7577,0.863 20.7391,-3.04 2.9913,-1.951 7.1085,-6.207 9.7706,-10.097 3.3912,-4.956 6.184,-7.102 10.3114,-7.931 0.9285,-0.186 4.7126,-0.384 8.4096,-0.44 l 6.7196,-0.103 -1.2556,1.15 c -1.3984,1.282 -1.2364,1.835 0.2511,0.859 1.1028,-0.723 2.8667,-2.765 4.2651,-4.936 2.9082,-4.514 11.733,-5.751 17.8856,-2.508 2.5548,1.347 4.4413,3.443 6.6153,7.346 2.7786,4.99 4.819,7.141 10.0106,10.56 3.5371,2.328 5.0124,3.547 6.3936,5.281 0.9873,1.239 3.3396,3.672 5.2271,5.407 2.8646,2.633 3.6342,3.578 4.6508,5.716 1.849,3.887 2.1285,5.876 1.8501,13.173 -0.2775,7.29 -0.2309,7.463 2.973,11.114 2.3239,2.648 2.9497,3.879 3.2129,6.314 0.1955,1.812 0.3069,2.007 1.4622,2.545 0.6876,0.32 2.7401,0.928 4.5608,1.353 3.2778,0.764 13.2934,2.302 13.5203,2.077 0.061,-0.06 -0.4152,-0.913 -1.0653,-1.885 -1.9725,-2.946 -2.5528,-4.923 -2.5133,-8.554 0.02,-2.329 0.2461,-3.796 0.804,-5.324 1.0663,-2.927 0.9782,-3.963 -0.6845,-8.088 -1.687,-4.184 -2.3381,-6.922 -1.9837,-8.335 l 0.2512,-1.002 1.0186,1.372 c 0.56,0.756 2.5761,2.9 4.4808,4.767 3.8793,3.802 5.9126,6.544 7.2502,9.777 0.7261,1.755 0.9377,2.969 1.0633,6.119 0.091,2.161 0,5.054 -0.1914,6.43 -0.1914,1.376 -0.3068,2.548 -0.2562,2.606 0.051,0.06 0.4982,-0.585 0.9934,-1.429 0.9022,-1.538 3.0459,-3.692 8.2375,-8.277 1.53,-1.351 3.5755,-3.504 4.5455,-4.786 l 1.764,-2.33 v 1.571 c 0,2.446 -0.961,8.141 -1.7508,10.422 -1.1452,3.302 -2.8991,6.277 -4.5618,7.742 -0.8495,0.747 -1.5442,1.482 -1.5442,1.632 0,0.691 4.2519,-0.287 8.2659,-1.902 2.4282,-0.977 6.0665,-2.269 8.0856,-2.872 4.739,-1.414 7.6209,-2.72 8.8643,-4.017 1.5159,-1.583 2.0283,-1.387 1.7255,0.658 -0.5498,3.712 -1.8976,6.139 -5.4761,9.86 -4.7846,4.976 -9.5955,8.165 -14.8569,9.851 -1.8035,0.5782 -6.4311,1.526 -10.5382,2.1588 -4.0281,0.6208 -8.841,1.4552 -10.6961,1.8541 -8.3773,1.8014 -15.0058,5.0671 -23.7759,11.7118 -5.0397,3.8175 -8.3661,5.627 -13.4413,7.313 -6.8735,2.2834 -12.4368,3.0834 -21.0216,3.0256 -3.2464,-0.02 -7.5915,-0.2561 -9.6542,-0.5184 z m 25.1844,-21.9249 c 1.5716,-0.3777 4.2013,-1.1128 5.8438,-1.6323 l 2.9861,-0.9458 -0.2278,-1.1331 c -0.1256,-0.6237 -0.4091,-2.2257 -0.6298,-3.5618 -0.3069,-1.849 -0.5236,-2.382 -0.9094,-2.233 -1.3163,0.504 -10.286,2.6963 -11.0363,2.6963 -0.4668,0 -0.8496,0.061 -0.8496,0.1407 0,0.1428 0.959,5.0884 1.2718,6.5576 0.2056,0.9671 0.02,0.961 3.5512,0.1114 z m -2.8504,-0.8252 c -0.081,-0.2461 -0.2947,-1.4653 -0.4719,-2.7087 -0.3797,-2.6662 -0.8688,-2.3169 5.8225,-4.1591 l 4.2863,-1.18 0.2329,0.764 c 0.4283,1.4107 0.3109,1.5707 -1.7508,2.3858 -3.3193,1.3113 -3.5633,1.9462 -0.325,0.8425 1.9826,-0.6754 2.736,-0.482 2.736,0.7007 0,1.0349 -1.1878,1.5827 -6.3186,2.9163 -3.937,1.0227 -4.014,1.0308 -4.2114,0.4385 z m -3.2231,0.6582 c 0,-0.1783 -1.687,-0.7656 -3.7507,-1.3063 -5.1896,-1.3599 -7.1834,-2.1629 -11.0728,-4.4615 -3.5067,-2.0722 -3.4905,-1.4992 0.02,0.9012 4.5091,3.0773 10.3589,5.4154 13.1912,5.2716 0.884,-0.041 1.607,-0.2268 1.607,-0.405 z m -0.1783,-2.7128 c 0,-0.1965 -0.402,-0.3575 -0.8931,-0.3575 -0.4911,0 -0.8931,0.161 -0.8931,0.3575 0,0.1964 0.402,0.3574 0.8931,0.3574 0.4911,0 0.8931,-0.161 0.8931,-0.3574 z m 20.1407,-3.9917 c 2.7229,-1.8545 8.437,-7.9695 8.437,-9.0305 0,-0.108 -1.1655,1.03 -2.5892,2.53 -1.4248,1.499 -3.9968,3.777 -5.7162,5.061 -1.7194,1.2836 -3.1259,2.4643 -3.1259,2.6232 0,0.3909 1.6253,-0.2511 2.9943,-1.1837 z m -21.3912,0.7848 c -0.3929,-0.1651 -2.1083,-0.5559 -3.8125,-0.8688 -2.6034,-0.4775 -5.3799,-1.3275 -9.404,-2.8805 -0.6268,-0.242 -0.6177,-0.203 0.071,0.314 1.8196,1.36 9.9863,3.7107 12.9623,3.7299 0.8101,0.01 0.8263,-0.02 0.1782,-0.2946 z m 58.3785,-4.4393 c 0.4932,-1.344 0.6501,-2.234 0.4324,-2.453 -0.5903,-0.589 -1.0086,0.01 -1.2374,1.784 -0.1215,0.938 -0.3271,2.109 -0.4567,2.6 -0.4314,1.6273 0.4496,0.278 1.2617,-1.931 z m -37.6597,-1.203 c 2.2612,-1.144 5.7334,-4.857 7.2077,-7.706 0.9549,-1.845 0.2046,-1.398 -1.2515,0.747 -1.7255,2.541 -4.6924,5.321 -6.9667,6.528 -2.7503,1.458 -1.8106,1.86 1.0105,0.431 z m -33.2397,-8.682 c 1.5311,-1.694 2.5579,-3.794 2.8981,-5.926 0.4253,-2.656 -1.5128,-5.273 -4.2327,-5.713 -2.0647,-0.335 -2.2571,0.31 -1.5098,5.077 0.4172,2.659 0.5671,4.915 0.4264,6.422 -0.2016,2.159 -0.1722,2.298 0.4263,1.977 0.3534,-0.189 1.2495,-1.016 1.9917,-1.837 z m -117.8101,35.4532 c -0.8415,-0.9295 -0.7322,-1.6677 0.3189,-2.1467 1.3286,-0.6055 2.4667,-0.5083 3.1715,0.2704 0.4779,0.5286 0.5336,0.8445 0.244,1.3862 -0.6906,1.2901 -2.7644,1.5625 -3.7344,0.4901 z m -29.5245,-13.4544 c -0.244,-0.2937 -0.3584,-0.8962 -0.2562,-1.3397 0.2096,-0.9032 1.8379,-4.8311 2.1194,-5.1116 0.4486,-0.4496 1.4825,1.9341 1.5047,3.4702 0.02,1.2971 -0.1691,1.8763 -0.8425,2.5923 -0.9761,1.0399 -1.8702,1.1776 -2.5254,0.3888 z m 11.6672,-9.3498 c -0.4779,-0.479 -0.2157,-1.702 0.7078,-3.303 0.5195,-0.901 1.0147,-1.718 1.1007,-1.816 0.3392,-0.388 1.1686,1.274 1.1686,2.341 0,1.878 -2.005,3.7495 -2.9771,2.778 z m 66.7123,-5.147 c -2.0718,-0.601 -2.9254,-2.422 -1.5442,-3.292 0.8597,-0.54 2.1112,-0.05 3.8954,1.528 1.3265,1.174 1.5139,1.485 1.0714,1.78 -0.64,0.427 -1.9169,0.421 -3.4226,-0.02 z m -37.1838,-7.453 c -1.6819,-0.764 -2.7502,-2.117 -2.3968,-3.038 0.3017,-0.785 1.5746,-1.275 2.3138,-0.889 0.7787,0.407 3.5532,4.128 3.2818,4.4 -0.402,0.402 -1.692,0.211 -3.1988,-0.473 z m -40.5942,-4.948 c -0.48,-0.531 -0.5417,-1.171 -0.3605,-3.736 0.2046,-2.905 0.2603,-3.073 0.9002,-2.731 1.928,1.032 2.7675,4.982 1.3579,6.392 -0.8789,0.879 -1.1594,0.89 -1.8976,0.07 z m 43.067,-16.852 c -1.2506,-0.773 -1.5614,-2.093 -0.6673,-2.835 0.3797,-0.315 0.9944,-0.192 2.6793,0.538 1.202,0.522 2.1862,1.064 2.1862,1.204 0,0.46 -1.2323,1.377 -2.1436,1.596 -0.5793,0.139 -1.3012,-0.04 -2.0546,-0.503 z"
       id="path101" /></g></svg>
